<svg width="521" height="160" viewBox="0 0 521 160" fill="none" xmlns="http://www.w3.org/2000/svg">
<ellipse cx="260.5" cy="125.001" rx="260.5" ry="34.5" fill="#E7EC5C"/>
<path d="M60.0628 120.427C84.2555 121.92 107.723 114.958 122.848 108.49C118.187 109.737 113.062 102.2 113.062 99.427C113.062 96.427 135.063 51.927 147.062 43.427C156.662 36.627 159.396 42.7804 159.562 46.7071C181.42 33.9665 208.288 32.2789 225.563 34.4271C253.701 14.9468 302.422 -5.92734 347 4.10018C375.914 10.6042 403.086 30.1089 421.767 71.427L450.562 80.4271C452.701 81.9271 456.086 86.127 452.52 90.927C455.92 92.3623 458.654 93.6056 460.062 94.427C464.862 97.2271 459.729 116.927 456.562 126.427H340.027C339.743 128.813 339.402 131.044 339.062 132.927C325.062 135.727 280.562 129.76 260.062 126.427C242.062 129.427 178.563 128.427 170.563 129.427C162.563 130.427 57.0628 136.927 60.0628 132.927C62.4628 129.727 61.0628 123.26 60.0628 120.427Z" fill="#060606"/>
<path d="M135.063 102.427C123.563 109.26 92.4628 122.427 60.0628 120.427C61.0628 123.26 62.4628 129.727 60.0628 132.927C57.0628 136.927 162.563 130.427 170.563 129.427C178.563 128.427 242.062 129.427 260.062 126.427C280.562 129.76 325.062 135.727 339.062 132.927C339.402 131.044 339.743 128.813 340.027 126.427M300.062 94.427C300.562 96.427 326.562 102.427 335.562 102.427C341.429 102.427 341.276 115.927 340.027 126.427M340.027 126.427H456.562C459.729 116.927 464.863 97.227 460.062 94.427C458.654 93.6056 455.92 92.3623 452.52 90.927M421.767 71.427C423.075 74.3192 424.341 77.3182 425.563 80.4271C432.276 82.9002 444.331 87.4704 452.52 90.927M421.767 71.427L450.562 80.4271C452.701 81.9271 456.086 86.127 452.52 90.927M421.767 71.427C403.086 30.1089 375.914 10.6042 347 4.10018C302.422 -5.92734 253.701 14.9468 225.563 34.4271C208.288 32.2789 181.42 33.9665 159.562 46.7071M205.062 51.927C213.396 44.427 232.462 37.127 242.062 67.927C254.062 106.427 252 113.001 247.062 115.927C242.826 118.438 207.562 122.927 201.562 115.927C195.562 108.927 191.562 92.927 196.562 88.927M159.562 46.7071C140.719 57.6908 126.015 75.9628 123.978 108.001C119.059 111.001 113.062 102.427 113.062 99.427C113.062 96.427 135.063 51.927 147.062 43.427C156.662 36.627 159.396 42.7804 159.562 46.7071Z" stroke="#E7EC5C" stroke-width="3" stroke-linecap="round"/>
<path d="M112.5 113.001V121.001" stroke="#E7EC5C" stroke-width="3" stroke-linecap="round"/>
<path d="M171.715 84.5005L176.329 101.233M166 96.1769L182.044 89.5562" stroke="#E7EC5C" stroke-width="3" stroke-linecap="round"/>
<path d="M133 84.8503L145.946 96.4107M134.526 97.7604L144.421 83.5005" stroke="#E7EC5C" stroke-width="3" stroke-linecap="round"/>
<path d="M78 121.001V127.501M92 119.001V125.001" stroke="#E7EC5C" stroke-width="3" stroke-linecap="round"/>
</svg>
