<svg width="68" height="57" viewBox="0 0 68 57" fill="none" xmlns="http://www.w3.org/2000/svg">
<path d="M41.86 12.285C44.1011 7.24393 48.196 2.72998 51.7293 2.72998C58.5141 2.72998 64.0143 14.3415 64.0143 28.665C64.0143 42.9885 60.3341 53.69 53.5493 53.69C51.4729 53.69 47.047 52.234 45.955 46.41" stroke="#060606" stroke-width="0.91"/>
<path d="M63.7 28.2015C64.155 45.5 58.2162 53.69 54.1956 53.69C50.1749 53.69 47.32 42.2784 47.32 28.2015C47.32 14.1247 49.813 3.63998 53.8337 3.63998C57.8544 3.63998 63.7 14.1247 63.7 28.2015Z" fill="#060606"/>
<path d="M44.135 13.65C25.935 5.91498 27.4515 21.4541 28.2098 32.2224V32.5584C27.8995 32.5668 27.5959 32.577 27.3 32.5892C25.347 32.6698 23.7297 32.8385 22.75 33.1324C21.0791 33.6337 19.5309 34.3191 17.745 34.6927C16.0781 35.0415 14.2041 35.1189 11.83 34.5217C9.82076 34.0164 7.45329 33.0281 4.54995 31.3124C5.30828 32.9807 6.18795 38.5014 3.63995 47.2374C11.83 45.4174 29.12 41.9594 32.76 42.6874C35.1517 43.1658 36.2862 43.7699 38.675 43.7727C45.955 48.1407 56.875 46.7824 60.97 44.9624L60.06 10.8374C51.324 9.01744 45.955 12.1334 44.135 13.65Z" fill="#E7EC5C"/>
<path d="M38.675 43.7727C45.955 48.1407 56.875 46.7824 60.97 44.9624L60.06 10.8374C51.324 9.01744 45.955 12.1334 44.135 13.65C25.935 5.91498 27.4515 21.4541 28.2098 32.2224V32.5584M28.2098 32.5584C33.4588 32.4178 40.6131 32.8185 44.59 33.1324M28.2098 32.5584C27.8995 32.5668 27.5959 32.577 27.3 32.5892M50.05 40.495C49.595 42.6874 46.8084 42.5624 45.5 42.8403C37.2251 44.5982 36.6887 43.4732 32.76 42.6874C29.12 41.9594 11.83 45.4174 3.63995 47.2374C6.18795 38.5014 5.30828 32.9807 4.54995 31.3124C7.45329 33.0281 9.82076 34.0164 11.83 34.5217M11.83 34.5217V39.5024M11.83 34.5217C14.2041 35.1189 16.0781 35.0415 17.745 34.6927M17.745 34.6927C19.5309 34.3191 21.0791 33.6337 22.75 33.1324C23.7297 32.8385 25.347 32.6698 27.3 32.5892M17.745 34.6927V39.5024M27.3 32.5892V36.7724" stroke="#060606" stroke-width="0.91" stroke-linecap="round"/>
<path d="M42.9664 23.4359C31.7455 33.2695 30.3789 23.4359 31.0981 17.29L59.15 22.3185C53.108 35.7279 46.9222 28.6507 44.5845 23.4359H42.9664Z" fill="#060606"/>
<path d="M33.9624 21.5672L35.1975 23.4777" stroke="#E7EC5C" stroke-width="1.82" stroke-linecap="round"/>
<path d="M50.5225 24.2971L51.7575 26.2077" stroke="#E7EC5C" stroke-width="1.82" stroke-linecap="round"/>
<path d="M36.8727 20.93L38.1078 22.8405" stroke="#E7EC5C" stroke-width="1.82" stroke-linecap="round"/>
<path d="M53.4328 23.66L54.6679 25.5705" stroke="#E7EC5C" stroke-width="1.82" stroke-linecap="round"/>
</svg>
