<svg width="680" height="100" viewBox="0 0 680 100" fill="none" xmlns="http://www.w3.org/2000/svg">
<path d="M62.79 26.1125C66.1517 18.5509 72.2941 11.78 77.5939 11.78C87.7711 11.78 96.0214 29.1973 96.0214 50.6825C96.0214 72.1678 90.5011 88.22 80.3239 88.22C77.2093 88.22 70.5705 86.036 68.9325 77.3" stroke="#060606" stroke-width="1.365"/>
<path d="M95.55 49.9871C96.2325 75.9348 87.3242 88.2198 81.2934 88.2198C75.2624 88.2198 70.98 71.1024 70.98 49.9871C70.98 28.8719 74.7196 13.1448 80.7505 13.1448C86.7815 13.1448 95.55 28.8719 95.55 49.9871Z" fill="#060606"/>
<path d="M66.2024 28.1602C38.9024 16.5577 41.1772 39.8665 42.3146 56.0189V56.5229C41.8492 56.5354 41.3938 56.5507 40.9499 56.569C38.0205 56.6899 35.5946 56.943 34.1249 57.3839C31.6186 58.1357 29.2964 59.1639 26.6174 59.7243C24.1171 60.2475 21.3062 60.3636 17.7449 59.4678C14.7311 58.7099 11.1799 57.2273 6.82492 54.6539C7.96241 57.1564 9.28191 65.4374 5.45992 78.5414C17.7449 75.8114 43.6799 70.6244 49.1399 71.7164C52.7275 72.434 54.4293 73.3401 58.0124 73.3443C68.9324 79.8963 85.3124 77.8589 91.4549 75.1289L90.0899 23.9414C76.9859 21.2114 68.9325 25.8853 66.2024 28.1602Z" fill="#E7EC5C"/>
<path d="M58.0124 73.3443C68.9324 79.8963 85.3124 77.8589 91.4549 75.1289L90.0899 23.9414C76.9859 21.2114 68.9325 25.8853 66.2024 28.1602C38.9024 16.5577 41.1772 39.8665 42.3146 56.0189V56.5229M42.3146 56.5229C50.1882 56.312 60.9196 56.913 66.8849 57.3839M42.3146 56.5229C41.8492 56.5354 41.3938 56.5507 40.9499 56.569M75.0749 68.4277C74.3924 71.7164 70.2126 71.5289 68.2499 71.9457C55.8377 74.5825 55.033 72.8951 49.1399 71.7164C43.6799 70.6244 17.7449 75.8114 5.45992 78.5414C9.28191 65.4374 7.96241 57.1564 6.82492 54.6539C11.1799 57.2273 14.7311 58.7099 17.7449 59.4678M17.7449 59.4678V66.9389M17.7449 59.4678C21.3062 60.3636 24.1171 60.2475 26.6174 59.7243M26.6174 59.7243C29.2964 59.1639 31.6186 58.1357 34.1249 57.3839C35.5946 56.943 38.0205 56.6899 40.9499 56.569M26.6174 59.7243V66.9389M40.9499 56.569V62.8439" stroke="#060606" stroke-width="1.365" stroke-linecap="round"/>
<path d="M64.4495 42.8391C47.6182 57.5894 45.5683 42.8391 46.6472 33.6201L88.7249 41.1628C79.662 61.2769 70.3833 50.6612 66.8768 42.8391H64.4495Z" fill="#060606"/>
<path d="M50.9436 40.0356L52.7962 42.9015" stroke="#E7EC5C" stroke-width="2.73" stroke-linecap="round"/>
<path d="M75.7837 44.1306L77.6363 46.9964" stroke="#E7EC5C" stroke-width="2.73" stroke-linecap="round"/>
<path d="M55.3091 39.0798L57.1617 41.9457" stroke="#E7EC5C" stroke-width="2.73" stroke-linecap="round"/>
<path d="M80.1492 43.1748L82.0018 46.0406" stroke="#E7EC5C" stroke-width="2.73" stroke-linecap="round"/>
<path d="M142.522 25.728C146.122 25.728 149.134 25.884 151.558 26.196C153.982 26.508 155.914 27 157.354 27.672C158.794 28.32 159.826 29.16 160.45 30.192C161.074 31.2 161.386 32.4 161.386 33.792C161.386 35.304 160.894 36.648 159.91 37.824C158.95 38.976 157.594 39.948 155.842 40.74C154.114 41.508 152.098 42.084 149.794 42.468C147.514 42.876 145.054 43.08 142.414 43.08C139.486 43.08 136.822 42.864 134.422 42.432C132.022 42 129.982 41.34 128.302 40.452C126.622 39.54 125.362 38.376 124.522 36.96C123.706 35.544 123.382 33.852 123.55 31.884L138.922 30.84C138.73 31.56 138.778 32.16 139.066 32.64C139.378 33.12 139.858 33.48 140.506 33.72C141.154 33.96 141.874 34.08 142.666 34.08C143.146 34.08 143.578 34.044 143.962 33.972C144.37 33.9 144.73 33.792 145.042 33.648C145.354 33.504 145.594 33.324 145.762 33.108C145.93 32.868 146.014 32.604 146.014 32.316C146.014 31.74 145.714 31.368 145.114 31.2C144.538 31.032 143.686 30.948 142.558 30.948C142.51 30.948 142.45 30.948 142.378 30.948C142.33 30.948 142.27 30.948 142.198 30.948C142.15 30.948 142.09 30.948 142.018 30.948C141.946 30.948 141.874 30.948 141.802 30.948C141.754 30.948 141.706 30.948 141.658 30.948C138.106 30.948 135.154 30.768 132.802 30.408C130.45 30.024 128.59 29.496 127.222 28.824C125.854 28.152 124.882 27.36 124.306 26.448C123.73 25.512 123.442 24.468 123.442 23.316C123.442 22.092 123.766 20.988 124.414 20.004C125.062 18.996 125.974 18.12 127.15 17.376C128.35 16.608 129.742 15.972 131.326 15.468C132.934 14.964 134.686 14.58 136.582 14.316C138.502 14.052 140.506 13.92 142.594 13.92C145.546 13.92 148.186 14.184 150.514 14.712C152.866 15.24 154.834 15.996 156.418 16.98C158.026 17.964 159.178 19.14 159.874 20.508C160.57 21.876 160.738 23.412 160.378 25.116L145.51 25.8C145.774 25.104 145.762 24.54 145.474 24.108C145.186 23.652 144.73 23.328 144.106 23.136C143.506 22.92 142.822 22.812 142.054 22.812C141.574 22.812 141.142 22.86 140.758 22.956C140.374 23.028 140.038 23.148 139.75 23.316C139.486 23.46 139.27 23.64 139.102 23.856C138.958 24.072 138.886 24.3 138.886 24.54C138.886 24.828 138.982 25.068 139.174 25.26C139.366 25.428 139.654 25.548 140.038 25.62C140.446 25.692 140.974 25.728 141.622 25.728C141.67 25.728 141.718 25.728 141.766 25.728C141.838 25.728 141.898 25.728 141.946 25.728C142.018 25.728 142.078 25.728 142.126 25.728C142.198 25.728 142.258 25.728 142.306 25.728C142.378 25.728 142.45 25.728 142.522 25.728ZM191.081 15C191.513 16.488 191.933 17.988 192.341 19.5C192.773 20.988 193.193 22.488 193.601 24C194.033 25.488 194.465 26.988 194.897 28.5C195.329 29.988 195.749 31.488 196.157 33C196.589 34.488 197.009 35.988 197.417 37.5C197.849 38.988 198.281 40.488 198.713 42H182.657L182.045 38.472C181.949 38.472 181.865 38.472 181.793 38.472C181.721 38.472 181.637 38.472 181.541 38.472H177.581C177.509 38.472 177.437 38.472 177.365 38.472C177.293 38.472 177.221 38.472 177.149 38.472L176.537 42H161.165C161.597 40.488 162.017 38.988 162.425 37.5C162.857 35.988 163.277 34.488 163.685 33C164.117 31.488 164.537 29.988 164.945 28.5C165.377 26.988 165.797 25.488 166.205 24C166.637 22.488 167.057 20.988 167.465 19.5C167.897 17.988 168.317 16.488 168.725 15H191.081ZM177.581 35.916C177.581 35.94 177.581 35.952 177.581 35.952C177.581 35.952 177.593 35.952 177.617 35.952H181.577C181.601 35.952 181.613 35.952 181.613 35.952C181.613 35.928 181.613 35.916 181.613 35.916C181.613 35.916 181.565 35.628 181.469 35.052C181.373 34.452 181.241 33.708 181.073 32.82C180.929 31.908 180.773 30.948 180.605 29.94C180.437 28.908 180.281 27.936 180.137 27.024C179.993 26.112 179.861 25.368 179.741 24.792C179.645 24.216 179.597 23.928 179.597 23.928C179.597 23.928 179.585 23.928 179.561 23.928C179.561 23.928 179.513 24.216 179.417 24.792C179.321 25.368 179.189 26.112 179.021 27.024C178.877 27.936 178.721 28.908 178.553 29.94C178.385 30.948 178.229 31.908 178.085 32.82C177.941 33.708 177.821 34.452 177.725 35.052C177.629 35.628 177.581 35.916 177.581 35.916ZM243.24 15C243.24 16.8 243.24 18.6 243.24 20.4C243.24 22.2 243.24 24 243.24 25.8C243.24 27.6 243.24 29.4 243.24 31.2C243.24 33 243.24 34.8 243.24 36.6C243.24 38.4 243.24 40.2 243.24 42H229.38C229.38 39.504 229.38 37.008 229.38 34.512C229.38 32.016 229.38 29.52 229.38 27.024C229.38 27 229.368 26.988 229.344 26.988C229.344 26.988 229.332 26.988 229.308 26.988C229.308 26.988 229.308 27 229.308 27.024L225.78 42H216.6C216 39.504 215.412 37.02 214.836 34.548C214.26 32.076 213.672 29.604 213.072 27.132C213.072 27.108 213.06 27.096 213.036 27.096C213.036 27.096 213.024 27.096 213 27.096C213 27.096 213 27.108 213 27.132C213 29.604 213 32.076 213 34.548C213 37.02 213 39.504 213 42H199.86C199.86 40.2 199.86 38.4 199.86 36.6C199.86 34.776 199.86 32.964 199.86 31.164C199.86 29.34 199.86 27.528 199.86 25.728C199.86 23.904 199.86 22.092 199.86 20.292C199.86 19.404 199.86 18.528 199.86 17.664C199.86 16.776 199.86 15.888 199.86 15H219.048C219.408 16.488 219.756 17.976 220.092 19.464C220.428 20.928 220.764 22.404 221.1 23.892C221.46 25.38 221.808 26.868 222.144 28.356C222.144 28.38 222.144 28.404 222.144 28.428C222.168 28.428 222.18 28.428 222.18 28.428C222.204 28.404 222.216 28.38 222.216 28.356L225.096 15H243.24ZM245.044 15H259.984C259.984 17.616 259.984 20.064 259.984 22.344C259.984 24.624 259.984 26.904 259.984 29.184C259.984 29.544 260.056 29.856 260.2 30.12C260.368 30.384 260.572 30.612 260.812 30.804C261.076 30.972 261.364 31.104 261.676 31.2C262.012 31.296 262.348 31.344 262.684 31.344C263.38 31.344 264.004 31.164 264.556 30.804C265.108 30.444 265.384 29.916 265.384 29.22C265.384 28.068 265.384 26.928 265.384 25.8C265.384 24.672 265.384 23.532 265.384 22.38C265.384 21.228 265.384 20.04 265.384 18.816C265.384 17.592 265.384 16.32 265.384 15H280.324C280.324 16.824 280.324 18.696 280.324 20.616C280.324 22.536 280.324 24.468 280.324 26.412C280.324 28.332 280.324 30.204 280.324 32.028C280.324 33.876 279.82 35.496 278.812 36.888C277.828 38.256 276.496 39.408 274.816 40.344C273.136 41.256 271.24 41.94 269.128 42.396C267.04 42.852 264.892 43.08 262.684 43.08C260.932 43.08 259.192 42.936 257.464 42.648C255.76 42.36 254.152 41.916 252.64 41.316C251.152 40.716 249.832 39.984 248.68 39.12C247.552 38.232 246.664 37.2 246.016 36.024C245.368 34.824 245.044 33.492 245.044 32.028C245.044 31.116 245.044 30.18 245.044 29.22C245.044 28.236 245.044 27.264 245.044 26.304C245.044 25.032 245.044 23.76 245.044 22.488C245.044 21.216 245.044 19.956 245.044 18.708C245.044 17.436 245.044 16.2 245.044 15ZM282.107 15H308.135C310.247 15 311.999 15.384 313.391 16.152C314.783 16.896 315.827 17.868 316.523 19.068C317.219 20.244 317.567 21.492 317.567 22.812C317.567 24.18 317.183 25.512 316.415 26.808C315.671 28.08 314.531 29.124 312.995 29.94C311.483 30.756 309.587 31.164 307.307 31.164C307.211 31.164 306.971 31.164 306.587 31.164C306.203 31.164 305.807 31.164 305.399 31.164C305.015 31.164 304.763 31.164 304.643 31.164C304.643 31.164 304.643 31.176 304.643 31.2C304.643 31.224 304.643 31.236 304.643 31.236C304.643 31.236 304.643 31.248 304.643 31.272C304.643 31.272 304.643 31.284 304.643 31.308H312.815L318.359 42H301.259C300.803 40.776 300.335 39.552 299.855 38.328C299.399 37.104 298.931 35.88 298.451 34.656C297.995 33.432 297.527 32.208 297.047 30.984H301.223C301.703 30.984 302.123 30.912 302.483 30.768C302.867 30.624 303.179 30.432 303.419 30.192C303.659 29.952 303.839 29.688 303.959 29.4C304.079 29.088 304.139 28.776 304.139 28.464C304.139 28.032 304.031 27.624 303.815 27.24C303.599 26.856 303.275 26.544 302.843 26.304C302.411 26.064 301.871 25.944 301.223 25.944H297.119C297.119 25.944 297.107 25.956 297.083 25.98C297.083 25.98 297.071 25.98 297.047 25.98C297.047 25.98 297.047 25.992 297.047 26.016C297.047 27.576 297.047 28.728 297.047 29.472C297.047 30.192 297.047 30.648 297.047 30.84C297.047 31.008 297.047 31.068 297.047 31.02C297.047 31.02 297.047 31.152 297.047 31.416C297.047 31.656 297.047 31.992 297.047 32.424C297.047 32.856 297.047 33.348 297.047 33.9C297.047 34.692 297.047 35.568 297.047 36.528C297.047 37.488 297.047 38.448 297.047 39.408C297.047 40.344 297.047 41.208 297.047 42H282.107C282.107 40.464 282.107 38.928 282.107 37.392C282.107 35.832 282.107 34.284 282.107 32.748C282.107 31.212 282.107 29.676 282.107 28.14C282.107 26.58 282.107 25.032 282.107 23.496C282.107 22.08 282.107 20.664 282.107 19.248C282.107 17.832 282.107 16.416 282.107 15ZM348.755 15C349.187 16.488 349.607 17.988 350.015 19.5C350.447 20.988 350.867 22.488 351.275 24C351.707 25.488 352.139 26.988 352.571 28.5C353.003 29.988 353.423 31.488 353.831 33C354.263 34.488 354.683 35.988 355.091 37.5C355.523 38.988 355.955 40.488 356.387 42H340.331L339.719 38.472C339.623 38.472 339.539 38.472 339.467 38.472C339.395 38.472 339.311 38.472 339.215 38.472H335.255C335.183 38.472 335.111 38.472 335.039 38.472C334.967 38.472 334.895 38.472 334.823 38.472L334.211 42H318.839C319.271 40.488 319.691 38.988 320.099 37.5C320.531 35.988 320.951 34.488 321.359 33C321.791 31.488 322.211 29.988 322.619 28.5C323.051 26.988 323.471 25.488 323.879 24C324.311 22.488 324.731 20.988 325.139 19.5C325.571 17.988 325.991 16.488 326.399 15H348.755ZM335.255 35.916C335.255 35.94 335.255 35.952 335.255 35.952C335.255 35.952 335.267 35.952 335.291 35.952H339.251C339.275 35.952 339.287 35.952 339.287 35.952C339.287 35.928 339.287 35.916 339.287 35.916C339.287 35.916 339.239 35.628 339.143 35.052C339.047 34.452 338.915 33.708 338.747 32.82C338.603 31.908 338.447 30.948 338.279 29.94C338.111 28.908 337.955 27.936 337.811 27.024C337.667 26.112 337.535 25.368 337.415 24.792C337.319 24.216 337.271 23.928 337.271 23.928C337.271 23.928 337.259 23.928 337.235 23.928C337.235 23.928 337.187 24.216 337.091 24.792C336.995 25.368 336.863 26.112 336.695 27.024C336.551 27.936 336.395 28.908 336.227 29.94C336.059 30.948 335.903 31.908 335.759 32.82C335.615 33.708 335.495 34.452 335.399 35.052C335.303 35.628 335.255 35.916 335.255 35.916ZM357.535 42C357.535 40.272 357.535 38.544 357.535 36.816C357.535 35.088 357.535 33.36 357.535 31.632C357.535 29.904 357.535 28.176 357.535 26.448C357.535 24.72 357.535 22.992 357.535 21.264C357.535 20.208 357.535 19.164 357.535 18.132C357.535 17.076 357.535 16.032 357.535 15H372.475C372.475 17.328 372.475 19.656 372.475 21.984C372.475 24.288 372.475 26.604 372.475 28.932C372.475 30.372 372.475 31.824 372.475 33.288C372.475 34.728 372.475 36.18 372.475 37.644C372.475 39.084 372.475 40.536 372.475 42H357.535Z" fill="#060606"/>
<path d="M154.006 56.072H138.346C138.322 56.072 138.31 56.072 138.31 56.072V58.052C138.31 58.076 138.31 58.1 138.31 58.124C138.334 58.124 138.346 58.124 138.346 58.124H153.466V63.2H138.346C138.346 63.2 138.334 63.2 138.31 63.2C138.31 63.2 138.31 63.212 138.31 63.236C138.31 63.236 138.31 63.248 138.31 63.272V65.288C138.334 65.288 138.346 65.288 138.346 65.288H154.222V74H123.73C123.73 72.584 123.73 71.168 123.73 69.752C123.73 68.312 123.73 66.884 123.73 65.468C123.73 64.052 123.73 62.636 123.73 61.22C123.73 59.78 123.73 58.352 123.73 56.936C123.73 55.496 123.73 54.068 123.73 52.652C123.73 51.716 123.73 50.78 123.73 49.844C123.73 48.884 123.73 47.936 123.73 47H154.006V56.072ZM170.882 63.344C170.882 63.368 170.882 63.392 170.882 63.416C170.906 63.416 170.93 63.416 170.954 63.416H184.994V74H155.942C155.942 72.512 155.942 71.024 155.942 69.536C155.942 68.048 155.942 66.56 155.942 65.072C155.942 63.56 155.942 62.06 155.942 60.572C155.942 59.084 155.942 57.596 155.942 56.108C155.942 54.596 155.942 53.084 155.942 51.572C155.942 50.036 155.942 48.512 155.942 47H170.882C170.882 48.368 170.882 49.736 170.882 51.104C170.882 52.448 170.882 53.804 170.882 55.172C170.882 56.54 170.882 57.908 170.882 59.276C170.882 60.62 170.882 61.976 170.882 63.344ZM216.812 56.072H201.152C201.128 56.072 201.116 56.072 201.116 56.072V58.052C201.116 58.076 201.116 58.1 201.116 58.124C201.14 58.124 201.152 58.124 201.152 58.124H216.272V63.2H201.152C201.152 63.2 201.14 63.2 201.116 63.2C201.116 63.2 201.116 63.212 201.116 63.236C201.116 63.236 201.116 63.248 201.116 63.272V65.288C201.14 65.288 201.152 65.288 201.152 65.288H217.028V74H186.536C186.536 72.584 186.536 71.168 186.536 69.752C186.536 68.312 186.536 66.884 186.536 65.468C186.536 64.052 186.536 62.636 186.536 61.22C186.536 59.78 186.536 58.352 186.536 56.936C186.536 55.496 186.536 54.068 186.536 52.652C186.536 51.716 186.536 50.78 186.536 49.844C186.536 48.884 186.536 47.936 186.536 47H216.812V56.072ZM241.535 47C243.767 47 245.711 47.312 247.367 47.936C249.047 48.536 250.427 49.364 251.507 50.42C252.611 51.452 253.439 52.628 253.991 53.948C254.543 55.268 254.819 56.636 254.819 58.052C254.819 59.564 254.531 61.004 253.955 62.372C253.403 63.716 252.563 64.916 251.435 65.972C250.331 67.028 248.951 67.868 247.295 68.492C245.639 69.092 243.719 69.392 241.535 69.392H233.795C233.795 69.392 233.783 69.404 233.759 69.428C233.759 69.428 233.747 69.428 233.723 69.428C233.723 69.428 233.723 69.44 233.723 69.464V74H218.747C218.747 72.392 218.747 70.784 218.747 69.176C218.747 67.568 218.747 65.96 218.747 64.352C218.747 62.744 218.747 61.136 218.747 59.528C218.747 57.92 218.747 56.312 218.747 54.704C218.747 53.408 218.747 52.124 218.747 50.852C218.747 49.556 218.747 48.272 218.747 47H241.535ZM237.107 61.58C237.827 61.58 238.427 61.46 238.907 61.22C239.411 60.956 239.783 60.632 240.023 60.248C240.263 59.84 240.383 59.432 240.383 59.024C240.383 58.592 240.263 58.196 240.023 57.836C239.783 57.452 239.423 57.14 238.943 56.9C238.463 56.66 237.851 56.54 237.107 56.54H233.795C233.771 56.54 233.747 56.552 233.723 56.576C233.723 56.576 233.723 56.588 233.723 56.612V61.544C233.747 61.544 233.759 61.556 233.759 61.58C233.783 61.58 233.795 61.58 233.795 61.58H237.107ZM276.177 47H291.117C291.117 48.512 291.117 50.024 291.117 51.536C291.117 53.048 291.117 54.56 291.117 56.072C291.117 57.584 291.117 59.108 291.117 60.644C291.117 62.852 291.117 65.072 291.117 67.304C291.117 69.536 291.117 71.768 291.117 74H276.177C276.177 72.536 276.177 71.072 276.177 69.608C276.177 68.144 276.177 66.68 276.177 65.216C276.177 65.192 276.165 65.18 276.141 65.18C276.141 65.156 276.129 65.144 276.105 65.144H271.173C271.149 65.144 271.137 65.156 271.137 65.18C271.137 65.18 271.137 65.192 271.137 65.216C271.137 66.68 271.137 68.144 271.137 69.608C271.137 71.072 271.137 72.536 271.137 74H256.197C256.197 72.56 256.197 71.12 256.197 69.68C256.197 68.24 256.197 66.8 256.197 65.36C256.197 63.92 256.197 62.48 256.197 61.04C256.197 59.6 256.197 58.16 256.197 56.72C256.197 55.28 256.197 53.84 256.197 52.4C256.197 51.488 256.197 50.588 256.197 49.7C256.197 48.788 256.197 47.888 256.197 47H271.137C271.137 48.152 271.137 49.316 271.137 50.492C271.137 51.668 271.137 52.844 271.137 54.02C271.137 55.172 271.137 56.336 271.137 57.512C271.137 57.536 271.137 57.56 271.137 57.584C271.137 57.584 271.149 57.584 271.173 57.584H276.105C276.129 57.584 276.141 57.584 276.141 57.584C276.165 57.56 276.177 57.536 276.177 57.512C276.177 55.76 276.177 54.008 276.177 52.256C276.177 50.504 276.177 48.752 276.177 47ZM322.177 47C322.609 48.488 323.029 49.988 323.437 51.5C323.869 52.988 324.289 54.488 324.697 56C325.129 57.488 325.561 58.988 325.993 60.5C326.425 61.988 326.845 63.488 327.253 65C327.685 66.488 328.105 67.988 328.513 69.5C328.945 70.988 329.377 72.488 329.809 74H313.753L313.141 70.472C313.045 70.472 312.961 70.472 312.889 70.472C312.817 70.472 312.733 70.472 312.637 70.472H308.677C308.605 70.472 308.533 70.472 308.461 70.472C308.389 70.472 308.317 70.472 308.245 70.472L307.633 74H292.261C292.693 72.488 293.113 70.988 293.521 69.5C293.953 67.988 294.373 66.488 294.781 65C295.213 63.488 295.633 61.988 296.041 60.5C296.473 58.988 296.893 57.488 297.301 56C297.733 54.488 298.153 52.988 298.561 51.5C298.993 49.988 299.413 48.488 299.821 47H322.177ZM308.677 67.916C308.677 67.94 308.677 67.952 308.677 67.952C308.677 67.952 308.689 67.952 308.713 67.952H312.673C312.697 67.952 312.709 67.952 312.709 67.952C312.709 67.928 312.709 67.916 312.709 67.916C312.709 67.916 312.661 67.628 312.565 67.052C312.469 66.452 312.337 65.708 312.169 64.82C312.025 63.908 311.869 62.948 311.701 61.94C311.533 60.908 311.377 59.936 311.233 59.024C311.089 58.112 310.957 57.368 310.837 56.792C310.741 56.216 310.693 55.928 310.693 55.928C310.693 55.928 310.681 55.928 310.657 55.928C310.657 55.928 310.609 56.216 310.513 56.792C310.417 57.368 310.285 58.112 310.117 59.024C309.973 59.936 309.817 60.908 309.649 61.94C309.481 62.948 309.325 63.908 309.181 64.82C309.037 65.708 308.917 66.452 308.821 67.052C308.725 67.628 308.677 67.916 308.677 67.916ZM352.232 47H366.092C366.092 47.888 366.092 48.788 366.092 49.7C366.092 50.588 366.092 51.488 366.092 52.4C366.092 53.288 366.092 54.188 366.092 55.1C366.092 55.988 366.092 56.888 366.092 57.8C366.092 58.688 366.092 59.588 366.092 60.5C366.092 62.756 366.092 65.012 366.092 67.268C366.092 69.5 366.092 71.744 366.092 74H349.424L344.888 61.04C344.888 61.016 344.876 61.004 344.852 61.004C344.852 61.004 344.84 61.004 344.816 61.004C344.816 61.004 344.816 61.016 344.816 61.04C344.816 63.152 344.816 65.312 344.816 67.52C344.816 69.728 344.816 71.888 344.816 74H330.956C330.956 72.2 330.956 70.4 330.956 68.6C330.956 66.8 330.956 65 330.956 63.2C330.956 61.4 330.956 59.6 330.956 57.8C330.956 56 330.956 54.2 330.956 52.4C330.956 50.6 330.956 48.8 330.956 47H347.084L352.16 61.94C352.184 61.94 352.196 61.94 352.196 61.94C352.22 61.94 352.232 61.94 352.232 61.94C352.232 61.916 352.232 61.904 352.232 61.904V47ZM400.063 47V57.944H391.387C391.387 57.944 391.375 57.956 391.351 57.98C391.351 57.98 391.339 57.98 391.315 57.98C391.315 57.98 391.315 57.992 391.315 58.016C391.315 59.072 391.315 60.14 391.315 61.22C391.315 62.276 391.315 63.344 391.315 64.424C391.315 65.48 391.315 66.548 391.315 67.628C391.315 68.684 391.315 69.752 391.315 70.832C391.315 71.888 391.315 72.944 391.315 74H376.375C376.375 72.224 376.375 70.448 376.375 68.672C376.375 66.896 376.375 65.12 376.375 63.344C376.375 61.568 376.375 59.792 376.375 58.016C376.375 57.992 376.363 57.98 376.339 57.98C376.339 57.956 376.327 57.944 376.303 57.944H367.627V47H400.063Z" fill="#060606"/>
<path d="M128.374 93.216C127.45 93.216 126.646 93.048 125.962 92.712C125.278 92.376 124.75 91.908 124.378 91.308C124.006 90.708 123.82 90.012 123.82 89.22H125.404C125.404 89.712 125.518 90.168 125.746 90.588C125.974 90.996 126.304 91.326 126.736 91.578C127.18 91.818 127.726 91.938 128.374 91.938C128.938 91.938 129.418 91.848 129.814 91.668C130.222 91.476 130.528 91.218 130.732 90.894C130.948 90.57 131.056 90.204 131.056 89.796C131.056 89.304 130.948 88.908 130.732 88.608C130.528 88.296 130.246 88.044 129.886 87.852C129.526 87.66 129.106 87.492 128.626 87.348C128.158 87.192 127.666 87.03 127.15 86.862C126.154 86.526 125.422 86.106 124.954 85.602C124.486 85.098 124.252 84.444 124.252 83.64C124.252 82.956 124.408 82.356 124.72 81.84C125.044 81.324 125.5 80.922 126.088 80.634C126.688 80.334 127.396 80.184 128.212 80.184C129.016 80.184 129.712 80.334 130.3 80.634C130.9 80.934 131.368 81.348 131.704 81.876C132.04 82.392 132.208 82.992 132.208 83.676H130.624C130.624 83.328 130.534 82.986 130.354 82.65C130.174 82.314 129.898 82.038 129.526 81.822C129.166 81.594 128.71 81.48 128.158 81.48C127.702 81.468 127.294 81.546 126.934 81.714C126.586 81.87 126.31 82.098 126.106 82.398C125.914 82.698 125.818 83.064 125.818 83.496C125.818 83.904 125.902 84.234 126.07 84.486C126.25 84.738 126.502 84.954 126.826 85.134C127.162 85.302 127.552 85.458 127.996 85.602C128.44 85.746 128.932 85.908 129.472 86.088C130.084 86.292 130.624 86.544 131.092 86.844C131.572 87.132 131.944 87.504 132.208 87.96C132.484 88.416 132.622 88.998 132.622 89.706C132.622 90.306 132.46 90.876 132.136 91.416C131.824 91.944 131.356 92.376 130.732 92.712C130.108 93.048 129.322 93.216 128.374 93.216ZM138.455 93C137.915 93 137.447 92.916 137.051 92.748C136.655 92.58 136.349 92.298 136.133 91.902C135.929 91.494 135.827 90.948 135.827 90.264V85.206H134.243V83.928H135.827L136.025 81.732H137.339V83.928H139.967V85.206H137.339V90.264C137.339 90.828 137.453 91.212 137.681 91.416C137.909 91.608 138.311 91.704 138.887 91.704H139.859V93H138.455ZM145.414 93.216C144.718 93.216 144.106 93.078 143.578 92.802C143.062 92.526 142.66 92.1 142.372 91.524C142.096 90.948 141.958 90.228 141.958 89.364V83.928H143.47V89.202C143.47 90.102 143.668 90.78 144.064 91.236C144.46 91.692 145.018 91.92 145.738 91.92C146.242 91.92 146.698 91.8 147.106 91.56C147.514 91.308 147.832 90.954 148.06 90.498C148.3 90.03 148.42 89.46 148.42 88.788V83.928H149.932V93H148.564L148.474 91.416C148.198 91.98 147.79 92.424 147.25 92.748C146.71 93.06 146.098 93.216 145.414 93.216ZM156.615 93.216C155.739 93.216 154.971 93.012 154.311 92.604C153.651 92.184 153.141 91.614 152.781 90.894C152.421 90.174 152.241 89.358 152.241 88.446C152.241 87.534 152.421 86.724 152.781 86.016C153.141 85.296 153.651 84.732 154.311 84.324C154.983 83.916 155.757 83.712 156.633 83.712C157.377 83.712 158.025 83.862 158.577 84.162C159.141 84.462 159.573 84.882 159.873 85.422V80.04H161.385V93H160.017L159.891 91.506C159.699 91.806 159.453 92.088 159.153 92.352C158.853 92.604 158.493 92.814 158.073 92.982C157.653 93.138 157.167 93.216 156.615 93.216ZM156.795 91.902C157.395 91.902 157.923 91.758 158.379 91.47C158.835 91.182 159.189 90.786 159.441 90.282C159.693 89.766 159.819 89.16 159.819 88.464C159.819 87.78 159.693 87.18 159.441 86.664C159.189 86.148 158.835 85.746 158.379 85.458C157.923 85.17 157.395 85.026 156.795 85.026C156.207 85.026 155.685 85.17 155.229 85.458C154.773 85.746 154.419 86.148 154.167 86.664C153.915 87.18 153.789 87.78 153.789 88.464C153.789 89.16 153.915 89.766 154.167 90.282C154.419 90.786 154.773 91.182 155.229 91.47C155.685 91.758 156.207 91.902 156.795 91.902ZM164.228 93V83.928H165.74V93H164.228ZM164.984 82.002C164.684 82.002 164.432 81.906 164.228 81.714C164.036 81.51 163.94 81.258 163.94 80.958C163.94 80.658 164.036 80.418 164.228 80.238C164.432 80.046 164.684 79.95 164.984 79.95C165.272 79.95 165.518 80.046 165.722 80.238C165.926 80.418 166.028 80.658 166.028 80.958C166.028 81.258 165.926 81.51 165.722 81.714C165.518 81.906 165.272 82.002 164.984 82.002ZM172.638 93.216C171.798 93.216 171.042 93.024 170.37 92.64C169.698 92.244 169.17 91.692 168.786 90.984C168.402 90.264 168.21 89.43 168.21 88.482C168.21 87.51 168.402 86.67 168.786 85.962C169.182 85.242 169.716 84.69 170.388 84.306C171.072 83.91 171.834 83.712 172.674 83.712C173.538 83.712 174.3 83.91 174.96 84.306C175.632 84.69 176.16 85.242 176.544 85.962C176.94 86.67 177.138 87.504 177.138 88.464C177.138 89.424 176.94 90.264 176.544 90.984C176.148 91.692 175.614 92.244 174.942 92.64C174.27 93.024 173.502 93.216 172.638 93.216ZM172.656 91.92C173.172 91.92 173.652 91.794 174.096 91.542C174.54 91.278 174.9 90.888 175.176 90.372C175.452 89.856 175.59 89.22 175.59 88.464C175.59 87.696 175.452 87.06 175.176 86.556C174.912 86.04 174.558 85.656 174.114 85.404C173.682 85.14 173.202 85.008 172.674 85.008C172.17 85.008 171.69 85.14 171.234 85.404C170.79 85.656 170.43 86.04 170.154 86.556C169.89 87.06 169.758 87.696 169.758 88.464C169.758 89.22 169.89 89.856 170.154 90.372C170.43 90.888 170.784 91.278 171.216 91.542C171.66 91.794 172.14 91.92 172.656 91.92ZM187.441 93V81.642H183.679V80.4H192.715V81.642H188.953V93H187.441ZM194.669 93V80.04H196.181V85.458C196.481 84.918 196.901 84.492 197.441 84.18C197.993 83.868 198.593 83.712 199.241 83.712C199.937 83.712 200.543 83.856 201.059 84.144C201.575 84.42 201.971 84.846 202.247 85.422C202.523 85.998 202.661 86.724 202.661 87.6V93H201.167V87.762C201.167 86.85 200.975 86.166 200.591 85.71C200.207 85.242 199.649 85.008 198.917 85.008C198.401 85.008 197.933 85.134 197.513 85.386C197.105 85.638 196.781 85.998 196.541 86.466C196.301 86.934 196.181 87.51 196.181 88.194V93H194.669ZM209.18 93.216C208.328 93.216 207.572 93.018 206.912 92.622C206.264 92.226 205.754 91.674 205.382 90.966C205.01 90.246 204.824 89.412 204.824 88.464C204.824 87.504 205.004 86.67 205.364 85.962C205.736 85.254 206.252 84.702 206.912 84.306C207.584 83.91 208.352 83.712 209.216 83.712C210.104 83.712 210.854 83.91 211.466 84.306C212.09 84.702 212.564 85.224 212.888 85.872C213.224 86.508 213.392 87.21 213.392 87.978C213.392 88.098 213.392 88.224 213.392 88.356C213.392 88.488 213.386 88.638 213.374 88.806H205.958V87.636H211.916C211.88 86.808 211.604 86.16 211.088 85.692C210.584 85.224 209.948 84.99 209.18 84.99C208.664 84.99 208.184 85.11 207.74 85.35C207.308 85.578 206.96 85.92 206.696 86.376C206.432 86.82 206.3 87.378 206.3 88.05V88.554C206.3 89.298 206.432 89.922 206.696 90.426C206.972 90.93 207.326 91.308 207.758 91.56C208.202 91.812 208.676 91.938 209.18 91.938C209.816 91.938 210.338 91.8 210.746 91.524C211.166 91.236 211.466 90.852 211.646 90.372H213.14C212.996 90.912 212.744 91.398 212.384 91.83C212.024 92.262 211.574 92.604 211.034 92.856C210.506 93.096 209.888 93.216 209.18 93.216ZM218.565 93.216C217.833 93.216 217.221 93.09 216.729 92.838C216.237 92.574 215.871 92.232 215.631 91.812C215.391 91.38 215.271 90.912 215.271 90.408C215.271 89.796 215.427 89.28 215.739 88.86C216.063 88.428 216.513 88.104 217.089 87.888C217.677 87.66 218.367 87.546 219.159 87.546H221.553C221.553 86.982 221.463 86.514 221.283 86.142C221.115 85.758 220.863 85.47 220.527 85.278C220.203 85.086 219.795 84.99 219.303 84.99C218.727 84.99 218.229 85.134 217.809 85.422C217.389 85.71 217.131 86.136 217.035 86.7H215.487C215.559 86.052 215.775 85.512 216.135 85.08C216.507 84.636 216.975 84.3 217.539 84.072C218.103 83.832 218.691 83.712 219.303 83.712C220.143 83.712 220.839 83.868 221.391 84.18C221.955 84.48 222.375 84.906 222.651 85.458C222.927 85.998 223.065 86.64 223.065 87.384V93H221.715L221.625 91.398C221.505 91.65 221.349 91.89 221.157 92.118C220.977 92.334 220.761 92.526 220.509 92.694C220.257 92.85 219.969 92.976 219.645 93.072C219.333 93.168 218.973 93.216 218.565 93.216ZM218.799 91.938C219.219 91.938 219.597 91.854 219.933 91.686C220.281 91.506 220.575 91.266 220.815 90.966C221.055 90.654 221.235 90.312 221.355 89.94C221.487 89.568 221.553 89.178 221.553 88.77V88.716H219.285C218.697 88.716 218.223 88.788 217.863 88.932C217.503 89.064 217.245 89.256 217.089 89.508C216.933 89.748 216.855 90.024 216.855 90.336C216.855 90.66 216.927 90.942 217.071 91.182C217.227 91.422 217.449 91.608 217.737 91.74C218.037 91.872 218.391 91.938 218.799 91.938ZM228.902 93C228.362 93 227.894 92.916 227.498 92.748C227.102 92.58 226.796 92.298 226.58 91.902C226.376 91.494 226.274 90.948 226.274 90.264V85.206H224.69V83.928H226.274L226.472 81.732H227.786V83.928H230.414V85.206H227.786V90.264C227.786 90.828 227.9 91.212 228.128 91.416C228.356 91.608 228.758 91.704 229.334 91.704H230.306V93H228.902ZM232.567 93V83.928H233.935L234.043 85.656C234.247 85.248 234.505 84.9 234.817 84.612C235.141 84.324 235.525 84.102 235.969 83.946C236.425 83.79 236.941 83.712 237.517 83.712V85.296H236.959C236.575 85.296 236.209 85.35 235.861 85.458C235.513 85.554 235.201 85.716 234.925 85.944C234.661 86.172 234.451 86.484 234.295 86.88C234.151 87.264 234.079 87.744 234.079 88.32V93H232.567ZM243.053 93.216C242.201 93.216 241.445 93.018 240.785 92.622C240.137 92.226 239.627 91.674 239.255 90.966C238.883 90.246 238.697 89.412 238.697 88.464C238.697 87.504 238.877 86.67 239.237 85.962C239.609 85.254 240.125 84.702 240.785 84.306C241.457 83.91 242.225 83.712 243.089 83.712C243.977 83.712 244.727 83.91 245.339 84.306C245.963 84.702 246.437 85.224 246.761 85.872C247.097 86.508 247.265 87.21 247.265 87.978C247.265 88.098 247.265 88.224 247.265 88.356C247.265 88.488 247.259 88.638 247.247 88.806H239.831V87.636H245.789C245.753 86.808 245.477 86.16 244.961 85.692C244.457 85.224 243.821 84.99 243.053 84.99C242.537 84.99 242.057 85.11 241.613 85.35C241.181 85.578 240.833 85.92 240.569 86.376C240.305 86.82 240.173 87.378 240.173 88.05V88.554C240.173 89.298 240.305 89.922 240.569 90.426C240.845 90.93 241.199 91.308 241.631 91.56C242.075 91.812 242.549 91.938 243.053 91.938C243.689 91.938 244.211 91.8 244.619 91.524C245.039 91.236 245.339 90.852 245.519 90.372H247.013C246.869 90.912 246.617 91.398 246.257 91.83C245.897 92.262 245.447 92.604 244.907 92.856C244.379 93.096 243.761 93.216 243.053 93.216Z" fill="#060606"/>
</svg>
