<svg width="74" height="62" viewBox="0 0 74 62" fill="none" xmlns="http://www.w3.org/2000/svg">
<path d="M46 13.5C48.4628 7.96038 52.9627 3 56.8454 3C64.3012 3 70.3454 15.7599 70.3454 31.5C70.3454 47.2401 66.3012 59 58.8454 59C56.5636 59 51.7 57.4 50.5 51" stroke="#E7EC5C"/>
<path d="M70 30.9907C70.5 50 63.9738 59 59.5556 59C55.1373 59 52 46.4598 52 30.9907C52 15.5217 54.7396 4 59.1579 4C63.5762 4 70 15.5217 70 30.9907Z" fill="#E7EC5C"/>
<path d="M48.5 15C28.5 6.5 30.1665 23.576 30.9998 35.4093V35.7785C30.6588 35.7877 30.3252 35.7989 30 35.8123C27.8539 35.9009 26.0767 36.0863 25 36.4093C23.1639 36.9601 21.4626 37.7133 19.5 38.1239C17.6683 38.5072 15.609 38.5922 13 37.936C10.7921 37.3807 8.19048 36.2946 5 34.4093C5.83333 36.2426 6.8 42.3093 4 51.9093C13 49.9093 32 46.1093 36 46.9093C38.6283 47.435 39.875 48.0988 42.5 48.1019C50.5 52.9019 62.5 51.4093 67 49.4093L66 11.9093C56.4 9.9093 50.5001 13.3334 48.5 15Z" fill="#060606"/>
<path d="M42.5 48.1019C50.5 52.9019 62.5 51.4093 67 49.4093L66 11.9093C56.4 9.9093 50.5001 13.3334 48.5 15C28.5 6.5 30.1665 23.576 30.9998 35.4093V35.7785M49 36.4093C44.6298 36.0643 36.768 35.624 30.9998 35.7785M55 44.5C54.5 46.9093 51.4379 46.7719 50 47.0773C40.9068 49.009 40.3173 47.7728 36 46.9093C32 46.1093 13 49.9093 4 51.9093C6.8 42.3093 5.83333 36.2426 5 34.4093C8.19048 36.2946 10.7921 37.3807 13 37.936M13 37.936V43.4093M13 37.936C15.609 38.5922 17.6683 38.5072 19.5 38.1239M19.5 38.1239C21.4626 37.7133 23.1639 36.9601 25 36.4093C26.0767 36.0863 27.8539 35.9009 30 35.8123M19.5 38.1239V43.4093M30 35.8123V40.4093M30 35.8123C30.3252 35.7989 30.6588 35.7877 30.9998 35.7785" stroke="#E7EC5C" stroke-linecap="round"/>
<path d="M47.2158 25.7538C34.8852 36.5599 33.3834 25.7538 34.1738 19L65 24.5258C58.3605 39.2614 51.5629 31.4843 48.994 25.7538H47.2158Z" fill="#E7EC5C"/>
<path d="M37.3213 23.7002L38.6785 25.7997" stroke="#060606" stroke-width="2" stroke-linecap="round"/>
<path d="M55.5192 26.7002L56.8764 28.7997" stroke="#060606" stroke-width="2" stroke-linecap="round"/>
<path d="M40.5195 23L41.8767 25.0995" stroke="#060606" stroke-width="2" stroke-linecap="round"/>
<path d="M58.7174 26L60.0746 28.0995" stroke="#060606" stroke-width="2" stroke-linecap="round"/>
</svg>
