<svg width="90" height="90" viewBox="0 0 90 90" fill="none" xmlns="http://www.w3.org/2000/svg">
<path d="M60.5531 35.0719C60.9482 35.4674 61.17 36.0035 61.17 36.5625C61.17 37.1215 60.9482 37.6576 60.5531 38.0531L40.8656 57.7406C40.4701 58.1356 39.934 58.3575 39.375 58.3575C38.816 58.3575 38.2799 58.1356 37.8844 57.7406L29.4469 49.3031C29.0743 48.9033 28.8714 48.3744 28.8811 47.8279C28.8907 47.2814 29.1121 46.76 29.4986 46.3736C29.8851 45.9871 30.4065 45.7657 30.9529 45.7561C31.4994 45.7464 32.0283 45.9493 32.4281 46.3219L39.375 53.2652L57.5719 35.0719C57.9674 34.6769 58.5035 34.455 59.0625 34.455C59.6215 34.455 60.1576 34.6769 60.5531 35.0719ZM80.8594 45C80.8594 52.0923 78.7563 59.0254 74.816 64.9224C70.8757 70.8194 65.2752 75.4156 58.7228 78.1297C52.1704 80.8439 44.9602 81.554 38.0042 80.1703C31.0482 78.7867 24.6586 75.3714 19.6436 70.3564C14.6286 65.3414 11.2133 58.9519 9.82967 51.9958C8.44603 45.0398 9.15616 37.8297 11.8703 31.2772C14.5844 24.7248 19.1806 19.1243 25.0776 15.184C30.9747 11.2437 37.9077 9.14063 45 9.14062C54.5071 9.15179 63.6216 12.9334 70.3441 19.6559C77.0666 26.3784 80.8482 35.4929 80.8594 45ZM76.6406 45C76.6406 38.7421 74.7849 32.6247 71.3082 27.4214C67.8315 22.2181 62.8899 18.1627 57.1084 15.7679C51.3268 13.3731 44.9649 12.7465 38.8272 13.9673C32.6896 15.1882 27.0517 18.2017 22.6267 22.6267C18.2017 27.0517 15.1882 32.6895 13.9674 38.8272C12.7465 44.9649 13.3731 51.3268 15.7679 57.1083C18.1627 62.8899 22.2182 67.8315 27.4214 71.3082C32.6247 74.7849 38.7421 76.6406 45 76.6406C53.3888 76.6313 61.4313 73.2948 67.363 67.363C73.2948 61.4313 76.6313 53.3888 76.6406 45Z" fill="#E7EC5C"/>
</svg>
