<svg width="36" height="36" viewBox="0 0 36 36" fill="none" xmlns="http://www.w3.org/2000/svg">
<path d="M32.0963 30.9037L24.8709 23.6784C26.9313 21.309 27.9913 18.2321 27.8273 15.0963C27.6633 11.9606 26.2883 9.01103 23.992 6.86938C21.6957 4.72772 18.6575 3.56129 15.518 3.61597C12.3785 3.67065 9.38282 4.94216 7.16249 7.16249C4.94217 9.38281 3.67065 12.3785 3.61597 15.518C3.5613 18.6575 4.72772 21.6957 6.86938 23.992C9.01104 26.2883 11.9606 27.6633 15.0963 27.8273C18.2321 27.9913 21.309 26.9313 23.6784 24.8709L30.9038 32.0963C31.0637 32.2453 31.2753 32.3264 31.4938 32.3226C31.7124 32.3187 31.921 32.2302 32.0756 32.0756C32.2302 31.921 32.3187 31.7124 32.3226 31.4938C32.3264 31.2752 32.2453 31.0637 32.0963 30.9037ZM5.34376 15.75C5.34376 13.6918 5.95407 11.6799 7.09753 9.9686C8.24098 8.2573 9.86621 6.9235 11.7677 6.13588C13.6692 5.34825 15.7616 5.14218 17.7802 5.5437C19.7988 5.94523 21.653 6.93633 23.1083 8.39167C24.5637 9.84701 25.5548 11.7012 25.9563 13.7198C26.3578 15.7385 26.1518 17.8308 25.3641 19.7323C24.5765 21.6338 23.2427 23.259 21.5314 24.4025C19.8201 25.5459 17.8082 26.1562 15.75 26.1562C12.9911 26.1529 10.3462 25.0555 8.39538 23.1046C6.44455 21.1538 5.34711 18.5089 5.34376 15.75Z" fill="#A7A6A6"/>
</svg>
