<svg width="20" height="20" viewBox="0 0 20 20" fill="none" xmlns="http://www.w3.org/2000/svg">
<path d="M10 2.03125C8.42393 2.03125 6.88326 2.49861 5.5728 3.37423C4.26235 4.24984 3.24097 5.49439 2.63784 6.95049C2.0347 8.40659 1.87689 10.0088 2.18437 11.5546C2.49185 13.1004 3.2508 14.5203 4.36525 15.6348C5.4797 16.7492 6.89959 17.5082 8.44538 17.8156C9.99116 18.1231 11.5934 17.9653 13.0495 17.3622C14.5056 16.759 15.7502 15.7377 16.6258 14.4272C17.5014 13.1167 17.9688 11.5761 17.9688 10C17.9663 7.88732 17.1259 5.86188 15.632 4.36798C14.1381 2.87409 12.1127 2.03373 10 2.03125ZM10.4688 17.0156V11.7188H12.5C12.6243 11.7188 12.7436 11.6694 12.8315 11.5815C12.9194 11.4935 12.9688 11.3743 12.9688 11.25C12.9688 11.1257 12.9194 11.0065 12.8315 10.9185C12.7436 10.8306 12.6243 10.7812 12.5 10.7812H10.4688V8.75C10.4688 8.37704 10.6169 8.01935 10.8806 7.75563C11.1444 7.49191 11.502 7.34375 11.875 7.34375H13.125C13.2493 7.34375 13.3686 7.29436 13.4565 7.20646C13.5444 7.11855 13.5938 6.99932 13.5938 6.875C13.5938 6.75068 13.5444 6.63145 13.4565 6.54354C13.3686 6.45564 13.2493 6.40625 13.125 6.40625H11.875C11.2534 6.40625 10.6573 6.65318 10.2177 7.09272C9.77818 7.53226 9.53125 8.1284 9.53125 8.75V10.7812H7.5C7.37568 10.7812 7.25646 10.8306 7.16855 10.9185C7.08064 11.0065 7.03125 11.1257 7.03125 11.25C7.03125 11.3743 7.08064 11.4935 7.16855 11.5815C7.25646 11.6694 7.37568 11.7188 7.5 11.7188H9.53125V17.0156C7.71111 16.894 6.00948 16.0698 4.78571 14.717C3.56194 13.3642 2.91182 11.5887 2.97267 9.76551C3.03351 7.94233 3.80054 6.21415 5.11177 4.94594C6.42301 3.67773 8.1758 2.96877 10 2.96877C11.8242 2.96877 13.577 3.67773 14.8882 4.94594C16.1995 6.21415 16.9665 7.94233 17.0273 9.76551C17.0882 11.5887 16.4381 13.3642 15.2143 14.717C13.9905 16.0698 12.2889 16.894 10.4688 17.0156Z" fill="black"/>
</svg>
