<svg width="20" height="20" viewBox="0 0 20 20" fill="none" xmlns="http://www.w3.org/2000/svg">
<path d="M10 6.40625C9.28922 6.40625 8.59441 6.61702 8.00342 7.01191C7.41243 7.40679 6.95181 7.96806 6.67981 8.62473C6.40781 9.2814 6.33664 10.004 6.4753 10.7011C6.61397 11.3982 6.95624 12.0386 7.45884 12.5412C7.96143 13.0438 8.60178 13.386 9.29889 13.5247C9.99601 13.6634 10.7186 13.5922 11.3753 13.3202C12.0319 13.0482 12.5932 12.5876 12.9881 11.9966C13.383 11.4056 13.5938 10.7108 13.5938 10C13.5925 9.04726 13.2135 8.1339 12.5398 7.4602C11.8661 6.78651 10.9527 6.40749 10 6.40625ZM10 12.6562C9.47464 12.6562 8.96108 12.5005 8.52427 12.2086C8.08745 11.9167 7.74699 11.5019 7.54595 11.0165C7.3449 10.5311 7.2923 9.99705 7.39479 9.48179C7.49728 8.96653 7.75026 8.49323 8.12175 8.12175C8.49323 7.75026 8.96653 7.49728 9.48179 7.39479C9.99705 7.2923 10.5311 7.3449 11.0165 7.54595C11.5019 7.74699 11.9167 8.08745 12.2086 8.52427C12.5005 8.96108 12.6562 9.47464 12.6562 10C12.6562 10.7045 12.3764 11.3801 11.8783 11.8783C11.3801 12.3764 10.7045 12.6563 10 12.6562ZM13.75 2.03125H6.25C5.1315 2.03249 4.05916 2.47736 3.26826 3.26826C2.47736 4.05916 2.03249 5.1315 2.03125 6.25V13.75C2.03249 14.8685 2.47736 15.9408 3.26826 16.7317C4.05916 17.5226 5.1315 17.9675 6.25 17.9688H13.75C14.8685 17.9675 15.9408 17.5226 16.7317 16.7317C17.5226 15.9408 17.9675 14.8685 17.9688 13.75V6.25C17.9675 5.1315 17.5226 4.05916 16.7317 3.26826C15.9408 2.47736 14.8685 2.03249 13.75 2.03125ZM17.0312 13.75C17.0312 14.6202 16.6855 15.4548 16.0702 16.0702C15.4548 16.6855 14.6202 17.0312 13.75 17.0312H6.25C5.37976 17.0312 4.54516 16.6855 3.92981 16.0702C3.31445 15.4548 2.96875 14.6202 2.96875 13.75V6.25C2.96875 5.37976 3.31445 4.54516 3.92981 3.92981C4.54516 3.31445 5.37976 2.96875 6.25 2.96875H13.75C14.6202 2.96875 15.4548 3.31445 16.0702 3.92981C16.6855 4.54516 17.0312 5.37976 17.0312 6.25V13.75ZM14.8438 5.9375C14.8438 6.09202 14.7979 6.24306 14.7121 6.37154C14.6262 6.50002 14.5042 6.60015 14.3615 6.65928C14.2187 6.71841 14.0616 6.73388 13.9101 6.70374C13.7585 6.67359 13.6193 6.59919 13.5101 6.48993C13.4008 6.38067 13.3264 6.24146 13.2963 6.08991C13.2661 5.93837 13.2816 5.78128 13.3407 5.63853C13.3998 5.49577 13.5 5.37376 13.6285 5.28791C13.7569 5.20207 13.908 5.15625 14.0625 5.15625C14.2697 5.15625 14.4684 5.23856 14.6149 5.38507C14.7614 5.53159 14.8438 5.7303 14.8438 5.9375Z" fill="black"/>
</svg>
