<svg width="24" height="24" viewBox="0 0 24 24" fill="none" xmlns="http://www.w3.org/2000/svg">
<path d="M17.0625 6.75004C17.0626 5.77274 16.7798 4.8163 16.2483 3.99618C15.7168 3.17606 14.9592 2.52732 14.0671 2.12827C13.175 1.72922 12.1864 1.59692 11.2208 1.74734C10.2551 1.89776 9.35367 2.32448 8.6252 2.97597C7.89673 3.62747 7.3724 4.47589 7.11552 5.41883C6.85863 6.36176 6.88017 7.3589 7.17753 8.28986C7.47489 9.22082 8.03535 10.0458 8.79127 10.6652C9.54719 11.2847 10.4663 11.6721 11.4375 11.7807V21.75C11.4375 21.8992 11.4968 22.0423 11.6023 22.1478C11.7077 22.2533 11.8508 22.3125 12 22.3125C12.1492 22.3125 12.2923 22.2533 12.3977 22.1478C12.5032 22.0423 12.5625 21.8992 12.5625 21.75V11.7807C13.7994 11.6409 14.9416 11.051 15.7715 10.1232C16.6014 9.19547 17.0609 7.9948 17.0625 6.75004ZM12 10.6875C11.2212 10.6875 10.46 10.4566 9.81244 10.024C9.16492 9.5913 8.66024 8.97634 8.36222 8.25686C8.0642 7.53737 7.98623 6.74567 8.13816 5.98187C8.29009 5.21807 8.6651 4.51648 9.21577 3.96581C9.76644 3.41514 10.468 3.04013 11.2318 2.8882C11.9956 2.73627 12.7873 2.81425 13.5068 3.11227C14.2263 3.41029 14.8413 3.91497 15.2739 4.56248C15.7066 5.21 15.9375 5.97128 15.9375 6.75004C15.9375 7.79433 15.5227 8.79585 14.7842 9.53428C14.0458 10.2727 13.0443 10.6875 12 10.6875Z" fill="#F8F8F8"/>
</svg>
