<svg width="24" height="24" viewBox="0 0 24 24" fill="none" xmlns="http://www.w3.org/2000/svg">
<path d="M21 6.9375C19.7573 6.93601 18.5658 6.44167 17.6871 5.56292C16.8083 4.68416 16.314 3.49275 16.3125 2.25C16.3125 2.10082 16.2532 1.95774 16.1477 1.85225C16.0423 1.74676 15.8992 1.6875 15.75 1.6875H12C11.8508 1.6875 11.7077 1.74676 11.6023 1.85225C11.4968 1.95774 11.4375 2.10082 11.4375 2.25V14.625C11.4373 14.994 11.338 15.3563 11.1501 15.6739C10.9622 15.9915 10.6925 16.2529 10.3692 16.4308C10.0459 16.6087 9.68074 16.6966 9.31187 16.6853C8.943 16.674 8.58392 16.5639 8.27208 16.3666C7.96023 16.1692 7.70705 15.8918 7.53894 15.5633C7.37082 15.2348 7.29393 14.8672 7.31629 14.4988C7.33864 14.1304 7.45943 13.7748 7.66604 13.469C7.87265 13.1632 8.15752 12.9185 8.49094 12.7603C8.58712 12.7147 8.6684 12.6428 8.72532 12.5528C8.78224 12.4629 8.81247 12.3586 8.8125 12.2522V8.25C8.81242 8.16825 8.79451 8.08749 8.76004 8.01336C8.72556 7.93923 8.67534 7.87351 8.61287 7.82077C8.55041 7.76803 8.47719 7.72954 8.39833 7.70798C8.31947 7.68642 8.23686 7.68231 8.15625 7.69594C4.89375 8.27625 2.4375 11.2547 2.4375 14.625C2.4375 16.4649 3.16841 18.2295 4.46945 19.5306C5.77048 20.8316 7.53506 21.5625 9.375 21.5625C11.2149 21.5625 12.9795 20.8316 14.2806 19.5306C15.5816 18.2295 16.3125 16.4649 16.3125 14.625V10.5872C17.7428 11.3941 19.3578 11.8163 21 11.8125C21.1492 11.8125 21.2923 11.7532 21.3977 11.6477C21.5032 11.5423 21.5625 11.3992 21.5625 11.25V7.5C21.5625 7.35082 21.5032 7.20774 21.3977 7.10225C21.2923 6.99676 21.1492 6.9375 21 6.9375ZM20.4375 10.6688C18.866 10.5684 17.3548 10.026 16.0781 9.10406C15.994 9.04362 15.8948 9.0076 15.7914 8.99997C15.6881 8.99234 15.5847 9.01339 15.4926 9.06081C15.4004 9.10823 15.3232 9.18017 15.2694 9.26869C15.2155 9.35722 15.1872 9.45889 15.1875 9.5625V14.625C15.1875 16.1666 14.5751 17.645 13.4851 18.7351C12.395 19.8251 10.9166 20.4375 9.375 20.4375C7.83343 20.4375 6.355 19.8251 5.26494 18.7351C4.17489 17.645 3.5625 16.1666 3.5625 14.625C3.5625 12.0262 5.29406 9.705 7.6875 8.96438V11.9203C7.21677 12.2141 6.83088 12.6256 6.56798 13.1142C6.30509 13.6029 6.1743 14.1517 6.18855 14.7064C6.20281 15.261 6.36161 15.8024 6.64925 16.2769C6.93689 16.7514 7.34341 17.1425 7.82861 17.4117C8.3138 17.6809 8.86086 17.8188 9.41568 17.8117C9.9705 17.8046 10.5139 17.6528 10.992 17.3714C11.4702 17.0899 11.8666 16.6884 12.142 16.2068C12.4175 15.7251 12.5624 15.1799 12.5625 14.625V2.8125H15.2147C15.3466 4.15287 15.9392 5.40602 16.8916 6.35839C17.844 7.31075 19.0971 7.90339 20.4375 8.03531V10.6688Z" fill="#F8F8F8"/>
</svg>
