<svg width="24" height="24" viewBox="0 0 24 24" fill="none" xmlns="http://www.w3.org/2000/svg">
<path d="M19.9744 19.9482L14.0287 10.605L19.9162 4.12504C19.9735 4.07191 20.019 4.00745 20.05 3.93575C20.0809 3.86405 20.0966 3.78669 20.0961 3.70859C20.0955 3.63049 20.0786 3.55337 20.0466 3.48214C20.0146 3.41091 19.9681 3.34713 19.9101 3.29485C19.852 3.24258 19.7838 3.20296 19.7096 3.17852C19.6354 3.15408 19.557 3.14536 19.4792 3.1529C19.4015 3.16044 19.3262 3.18409 19.2581 3.22234C19.19 3.26058 19.1306 3.31259 19.0837 3.37504L13.4062 9.62067L9.47811 3.44817C9.427 3.3678 9.35631 3.30173 9.27269 3.25614C9.18906 3.21056 9.09523 3.18695 8.99998 3.18754H4.49998C4.39922 3.18759 4.30032 3.2147 4.21362 3.26605C4.12692 3.31739 4.0556 3.39108 4.00712 3.47942C3.95865 3.56775 3.93479 3.66749 3.93804 3.7682C3.94129 3.86891 3.97153 3.9669 4.02561 4.05192L9.97123 13.395L4.08374 19.875C3.99938 19.9874 3.96013 20.1273 3.9737 20.2671C3.98727 20.4069 4.05268 20.5366 4.15707 20.6307C4.26145 20.7247 4.39725 20.7763 4.53775 20.7753C4.67824 20.7742 4.81326 20.7206 4.91623 20.625L10.5937 14.3794L14.5219 20.5519C14.573 20.6323 14.6437 20.6984 14.7273 20.7439C14.8109 20.7895 14.9047 20.8131 15 20.8125H19.5C19.6007 20.8125 19.6996 20.7854 19.7863 20.734C19.873 20.6827 19.9444 20.609 19.9928 20.5207C20.0413 20.4323 20.0652 20.3326 20.0619 20.2319C20.0587 20.1312 20.0284 20.0332 19.9744 19.9482ZM15.3084 19.6875L5.52467 4.31254H8.69155L18.4753 19.6875H15.3084Z" fill="#F8F8F8"/>
</svg>
