<svg width="20" height="20" viewBox="0 0 20 20" fill="none" xmlns="http://www.w3.org/2000/svg">
<path d="M17.5 5.78125C16.4644 5.78001 15.4715 5.36806 14.7392 4.63577C14.0069 3.90347 13.595 2.91062 13.5938 1.875C13.5937 1.75068 13.5444 1.63145 13.4565 1.54354C13.3685 1.45564 13.2493 1.40625 13.125 1.40625H10C9.87568 1.40625 9.75645 1.45564 9.66854 1.54354C9.58064 1.63145 9.53125 1.75068 9.53125 1.875V12.1875C9.53106 12.495 9.44836 12.7969 9.29178 13.0616C9.13519 13.3263 8.91046 13.5441 8.64101 13.6923C8.37157 13.8406 8.06728 13.9138 7.75989 13.9044C7.4525 13.895 7.15327 13.8033 6.8934 13.6388C6.63353 13.4744 6.42254 13.2432 6.28245 12.9694C6.14235 12.6956 6.07828 12.3893 6.09691 12.0823C6.11554 11.7754 6.21619 11.479 6.38836 11.2242C6.56054 10.9694 6.79793 10.7654 7.07578 10.6336C7.15593 10.5956 7.22366 10.5356 7.2711 10.4607C7.31853 10.3857 7.34372 10.2989 7.34375 10.2102V6.875C7.34368 6.80687 7.32876 6.73958 7.30003 6.6778C7.2713 6.61603 7.22945 6.56126 7.1774 6.51731C7.12534 6.47336 7.06433 6.44128 6.99861 6.42332C6.93289 6.40535 6.86405 6.40193 6.79688 6.41328C4.07813 6.89687 2.03125 9.37891 2.03125 12.1875C2.03125 13.7208 2.64034 15.1913 3.72454 16.2755C4.80873 17.3597 6.27922 17.9688 7.8125 17.9688C9.34578 17.9688 10.8163 17.3597 11.9005 16.2755C12.9847 15.1913 13.5938 13.7208 13.5938 12.1875V8.82266C14.7856 9.49509 16.1315 9.84691 17.5 9.84375C17.6243 9.84375 17.7435 9.79436 17.8315 9.70646C17.9194 9.61855 17.9688 9.49932 17.9688 9.375V6.25C17.9688 6.12568 17.9194 6.00645 17.8315 5.91854C17.7435 5.83064 17.6243 5.78125 17.5 5.78125ZM17.0312 8.89063C15.7216 8.80699 14.4623 8.35499 13.3984 7.58672C13.3283 7.53635 13.2456 7.50634 13.1595 7.49997C13.0734 7.49361 12.9872 7.51116 12.9105 7.55067C12.8337 7.59019 12.7693 7.65014 12.7245 7.72391C12.6796 7.79768 12.656 7.88241 12.6562 7.96875V12.1875C12.6563 13.4721 12.1459 14.7042 11.2375 15.6125C10.3292 16.5209 9.09714 17.0312 7.8125 17.0312C6.52786 17.0312 5.29583 16.5209 4.38745 15.6125C3.47907 14.7042 2.96875 13.4721 2.96875 12.1875C2.96875 10.0219 4.41172 8.0875 6.40625 7.47031V9.93359C6.01398 10.1784 5.6924 10.5213 5.47332 10.9285C5.25424 11.3357 5.14525 11.7931 5.15713 12.2553C5.169 12.7175 5.30134 13.1687 5.54104 13.5641C5.78074 13.9595 6.11951 14.2855 6.52384 14.5098C6.92817 14.7341 7.38405 14.849 7.8464 14.8431C8.30875 14.8372 8.76155 14.7107 9.16002 14.4761C9.5585 14.2416 9.88883 13.907 10.1184 13.5056C10.3479 13.1042 10.4687 12.6499 10.4688 12.1875V2.34375H12.6789C12.7888 3.46073 13.2827 4.50502 14.0763 5.29866C14.87 6.09229 15.9143 6.58616 17.0312 6.69609V8.89063Z" fill="black"/>
</svg>
