<svg width="40" height="40" viewBox="0 0 40 40" fill="none" xmlns="http://www.w3.org/2000/svg">
<path d="M20 4.0625C16.8479 4.0625 13.7665 4.99722 11.1456 6.74845C8.5247 8.49969 6.48195 10.9888 5.27568 13.901C4.06941 16.8132 3.75379 20.0177 4.36874 23.1093C4.98369 26.2008 6.50159 29.0406 8.73049 31.2695C10.9594 33.4984 13.7992 35.0163 16.8908 35.6313C19.9823 36.2462 23.1868 35.9306 26.099 34.7243C29.0112 33.5181 31.5003 31.4753 33.2516 28.8544C35.0028 26.2335 35.9375 23.1521 35.9375 20C35.9325 15.7746 34.2518 11.7238 31.264 8.73597C28.2763 5.74818 24.2254 4.06746 20 4.0625ZM11.1625 30.9375C12.0794 29.4129 13.375 28.1514 14.9236 27.2757C16.4722 26.4 18.221 25.9397 20 25.9397C21.779 25.9397 23.5278 26.4 25.0764 27.2757C26.625 28.1514 27.9206 29.4129 28.8375 30.9375C26.3381 32.9643 23.2179 34.0704 20 34.0704C16.7821 34.0704 13.6619 32.9643 11.1625 30.9375ZM14.6875 18.75C14.6875 17.6993 14.9991 16.6722 15.5828 15.7985C16.1666 14.9249 16.9963 14.244 17.967 13.8419C18.9377 13.4398 20.0059 13.3346 21.0364 13.5396C22.0669 13.7446 23.0135 14.2505 23.7565 14.9935C24.4995 15.7365 25.0054 16.6831 25.2104 17.7136C25.4154 18.7441 25.3102 19.8123 24.9081 20.783C24.506 21.7537 23.8251 22.5834 22.9515 23.1672C22.0778 23.7509 21.0507 24.0625 20 24.0625C18.591 24.0625 17.2398 23.5028 16.2435 22.5065C15.2472 21.5102 14.6875 20.159 14.6875 18.75ZM30.2359 29.6313C28.7629 27.3408 26.5612 25.6136 23.9859 24.7281C25.2701 23.8728 26.2449 22.627 26.7662 21.1749C27.2876 19.7228 27.3279 18.1415 26.8811 16.6647C26.4343 15.1879 25.5242 13.8941 24.2853 12.9746C23.0464 12.0551 21.5444 11.5586 20.0016 11.5586C18.4587 11.5586 16.9568 12.0551 15.7179 12.9746C14.4789 13.8941 13.5688 15.1879 13.122 16.6647C12.6752 18.1415 12.7155 19.7228 13.2369 21.1749C13.7583 22.627 14.7331 23.8728 16.0172 24.7281C13.442 25.6136 11.2402 27.3408 9.76719 29.6313C7.88411 27.6329 6.62724 25.1271 6.15163 22.4228C5.67603 19.7186 6.00251 16.9342 7.0908 14.4133C8.17908 11.8924 9.98155 9.7453 12.2758 8.23682C14.5701 6.72833 17.2558 5.9245 20.0016 5.9245C22.7473 5.9245 25.433 6.72833 27.7273 8.23682C30.0216 9.7453 31.8241 11.8924 32.9123 14.4133C34.0006 16.9342 34.3271 19.7186 33.8515 22.4228C33.3759 25.1271 32.119 27.6329 30.2359 29.6313Z" fill="#F8F8F8"/>
</svg>
