<svg width="20" height="20" viewBox="0 0 20 20" fill="none" xmlns="http://www.w3.org/2000/svg">
<path d="M16.6453 16.6234L11.6906 8.8375L16.5969 3.4375C16.6446 3.39322 16.6825 3.3395 16.7083 3.27975C16.7341 3.22 16.7472 3.15553 16.7467 3.09045C16.7462 3.02537 16.7322 2.9611 16.7055 2.90174C16.6788 2.84238 16.6401 2.78923 16.5917 2.74567C16.5434 2.70211 16.4865 2.66909 16.4247 2.64873C16.3629 2.62836 16.2975 2.62109 16.2327 2.62737C16.1679 2.63366 16.1052 2.65337 16.0484 2.68524C15.9917 2.71711 15.9422 2.76045 15.9031 2.8125L11.1719 8.01718L7.89843 2.87343C7.85584 2.80646 7.79694 2.7514 7.72725 2.71341C7.65756 2.67542 7.57937 2.65575 7.5 2.65625H3.75C3.66603 2.65628 3.58361 2.67888 3.51136 2.72167C3.43911 2.76445 3.37968 2.82586 3.33928 2.89947C3.29888 2.97309 3.279 3.0562 3.28171 3.14012C3.28442 3.22405 3.30962 3.30571 3.35469 3.37656L8.30937 11.1625L3.40312 16.5625C3.33283 16.6561 3.30011 16.7727 3.31142 16.8892C3.32273 17.0057 3.37724 17.1138 3.46423 17.1922C3.55122 17.2706 3.66439 17.3135 3.78146 17.3127C3.89854 17.3118 4.01106 17.2671 4.09687 17.1875L8.82812 11.9828L12.1016 17.1266C12.1442 17.1935 12.2031 17.2486 12.2727 17.2866C12.3424 17.3246 12.4206 17.3442 12.5 17.3437H16.25C16.334 17.3437 16.4164 17.3211 16.4886 17.2783C16.5609 17.2355 16.6203 17.1741 16.6607 17.1005C16.7011 17.0269 16.721 16.9438 16.7183 16.8599C16.7156 16.7759 16.6904 16.6943 16.6453 16.6234ZM12.757 16.4062L4.6039 3.59375H7.24297L15.3961 16.4062H12.757Z" fill="black"/>
</svg>
