<svg width="24" height="24" viewBox="0 0 24 24" fill="none" xmlns="http://www.w3.org/2000/svg">
<path d="M6.16145 16.3293C5.84505 16.6457 5.82998 17.2107 6.16899 17.5422C6.50046 17.8736 7.06547 17.8661 7.38188 17.5497L11.9924 12.9317L16.6104 17.5497C16.9343 17.8736 17.4918 17.8736 17.8233 17.5422C18.1472 17.2032 18.1548 16.6532 17.8233 16.3293L13.2128 11.7112L17.8233 7.10075C18.1548 6.77681 18.1548 6.21933 17.8233 5.88786C17.4843 5.56392 16.9343 5.55639 16.6104 5.88033L11.9924 10.4984L7.38188 5.88033C7.06547 5.56392 6.49293 5.54885 6.16899 5.88786C5.83752 6.21933 5.84505 6.78434 6.16145 7.10075L10.7795 11.7112L6.16145 16.3293Z" fill="#F8F8F8"/>
</svg>
