<svg width="241" height="60" viewBox="0 0 241 60" fill="none" xmlns="http://www.w3.org/2000/svg">
<path d="M37.674 15.2675C39.691 10.7305 43.3764 6.66797 46.5564 6.66797C52.6627 6.66797 57.6129 17.1183 57.6129 30.0095C57.6129 42.9006 54.3007 52.532 48.1944 52.532C46.3256 52.532 42.3423 51.2216 41.3595 45.98" stroke="#060606" stroke-width="0.819"/>
<path d="M57.33 29.5923C57.7395 45.1609 52.3946 52.5319 48.776 52.5319C45.1575 52.5319 42.588 42.2615 42.588 29.5923C42.588 16.9231 44.8317 7.48688 48.4503 7.48688C52.0689 7.48688 57.33 16.9231 57.33 29.5923Z" fill="#060606"/>
<path d="M39.7215 16.4961C23.3415 9.53459 24.7064 23.5198 25.3888 33.2113V33.5137C25.1096 33.5212 24.8363 33.5304 24.57 33.5414C22.8123 33.6139 21.3568 33.7658 20.475 34.0303C18.9712 34.4814 17.5779 35.0983 15.9705 35.4346C14.4703 35.7485 12.7838 35.8181 10.647 35.2807C8.83873 34.8259 6.708 33.9364 4.095 32.3923C4.7775 33.8938 5.5692 38.8624 3.276 46.7248C10.647 45.0868 26.208 41.9746 29.484 42.6298C31.6366 43.0604 32.6576 43.604 34.8075 43.6065C41.3595 47.5377 51.1875 46.3153 54.873 44.6773L54.054 13.9648C46.1916 12.3268 41.3596 15.1311 39.7215 16.4961Z" fill="#E7EC5C"/>
<path d="M34.8075 43.6065C41.3595 47.5377 51.1875 46.3153 54.873 44.6773L54.054 13.9648C46.1916 12.3268 41.3596 15.1311 39.7215 16.4961C23.3415 9.53459 24.7064 23.5198 25.3888 33.2113V33.5137M25.3888 33.5137C30.113 33.3871 36.5518 33.7478 40.131 34.0303M25.3888 33.5137C25.1096 33.5212 24.8363 33.5304 24.57 33.5414M45.045 40.6566C44.6355 42.6298 42.1276 42.5173 40.95 42.7674C33.5027 44.3495 33.0199 43.337 29.484 42.6298C26.208 41.9746 10.647 45.0868 3.276 46.7248C5.5692 38.8624 4.7775 33.8938 4.095 32.3923C6.708 33.9364 8.83873 34.8259 10.647 35.2807M10.647 35.2807V39.7633M10.647 35.2807C12.7838 35.8181 14.4703 35.7485 15.9705 35.4346M15.9705 35.4346C17.5779 35.0983 18.9712 34.4814 20.475 34.0303C21.3568 33.7658 22.8123 33.6139 24.57 33.5414M15.9705 35.4346V39.7633M24.57 33.5414V37.3063" stroke="#060606" stroke-width="0.819" stroke-linecap="round"/>
<path d="M38.6697 25.3034C28.571 34.1536 27.341 25.3034 27.9884 19.772L53.235 24.2977C47.7973 36.3661 42.23 29.9967 40.1261 25.3034H38.6697Z" fill="#060606"/>
<path d="M30.5662 23.6214L31.6777 25.3409" stroke="#E7EC5C" stroke-width="1.638" stroke-linecap="round"/>
<path d="M45.4702 26.0784L46.5818 27.7979" stroke="#E7EC5C" stroke-width="1.638" stroke-linecap="round"/>
<path d="M33.1855 23.0479L34.297 24.7674" stroke="#E7EC5C" stroke-width="1.638" stroke-linecap="round"/>
<path d="M48.0895 25.5049L49.2011 27.2244" stroke="#E7EC5C" stroke-width="1.638" stroke-linecap="round"/>
<path d="M85.5132 15.2368C87.6732 15.2368 89.4804 15.3304 90.9348 15.5176C92.3892 15.7048 93.5484 16 94.4124 16.4032C95.2764 16.792 95.8956 17.296 96.27 17.9152C96.6444 18.52 96.8316 19.24 96.8316 20.0752C96.8316 20.9824 96.5364 21.7888 95.946 22.4944C95.37 23.1856 94.5564 23.7688 93.5052 24.244C92.4684 24.7048 91.2588 25.0504 89.8764 25.2808C88.5084 25.5256 87.0324 25.648 85.4484 25.648C83.6916 25.648 82.0932 25.5184 80.6532 25.2592C79.2132 25 77.9892 24.604 76.9812 24.0712C75.9732 23.524 75.2172 22.8256 74.7132 21.976C74.2236 21.1264 74.0292 20.1112 74.13 18.9304L83.3532 18.304C83.238 18.736 83.2668 19.096 83.4396 19.384C83.6268 19.672 83.9148 19.888 84.3036 20.032C84.6924 20.176 85.1244 20.248 85.5996 20.248C85.8876 20.248 86.1468 20.2264 86.3772 20.1832C86.622 20.14 86.838 20.0752 87.0252 19.9888C87.2124 19.9024 87.3564 19.7944 87.4572 19.6648C87.558 19.5208 87.6084 19.3624 87.6084 19.1896C87.6084 18.844 87.4284 18.6208 87.0684 18.52C86.7228 18.4192 86.2116 18.3688 85.5348 18.3688C85.506 18.3688 85.47 18.3688 85.4268 18.3688C85.398 18.3688 85.362 18.3688 85.3188 18.3688C85.29 18.3688 85.254 18.3688 85.2108 18.3688C85.1676 18.3688 85.1244 18.3688 85.0812 18.3688C85.0524 18.3688 85.0236 18.3688 84.9948 18.3688C82.8636 18.3688 81.0924 18.2608 79.6812 18.0448C78.27 17.8144 77.154 17.4976 76.3332 17.0944C75.5124 16.6912 74.9292 16.216 74.5836 15.6688C74.238 15.1072 74.0652 14.4808 74.0652 13.7896C74.0652 13.0552 74.2596 12.3928 74.6484 11.8024C75.0372 11.1976 75.5844 10.672 76.29 10.2256C77.01 9.7648 77.8452 9.3832 78.7956 9.0808C79.7604 8.7784 80.8116 8.548 81.9492 8.3896C83.1012 8.2312 84.3036 8.152 85.5564 8.152C87.3276 8.152 88.9116 8.3104 90.3084 8.6272C91.7196 8.944 92.9004 9.3976 93.8508 9.988C94.8156 10.5784 95.5068 11.284 95.9244 12.1048C96.342 12.9256 96.4428 13.8472 96.2268 14.8696L87.306 15.28C87.4644 14.8624 87.4572 14.524 87.2844 14.2648C87.1116 13.9912 86.838 13.7968 86.4636 13.6816C86.1036 13.552 85.6932 13.4872 85.2324 13.4872C84.9444 13.4872 84.6852 13.516 84.4548 13.5736C84.2244 13.6168 84.0228 13.6888 83.85 13.7896C83.6916 13.876 83.562 13.984 83.4612 14.1136C83.3748 14.2432 83.3316 14.38 83.3316 14.524C83.3316 14.6968 83.3892 14.8408 83.5044 14.956C83.6196 15.0568 83.7924 15.1288 84.0228 15.172C84.2676 15.2152 84.5844 15.2368 84.9732 15.2368C85.002 15.2368 85.0308 15.2368 85.0596 15.2368C85.1028 15.2368 85.1388 15.2368 85.1676 15.2368C85.2108 15.2368 85.2468 15.2368 85.2756 15.2368C85.3188 15.2368 85.3548 15.2368 85.3836 15.2368C85.4268 15.2368 85.47 15.2368 85.5132 15.2368ZM114.648 8.8C114.908 9.6928 115.16 10.5928 115.404 11.5C115.664 12.3928 115.916 13.2928 116.16 14.2C116.42 15.0928 116.679 15.9928 116.938 16.9C117.197 17.7928 117.449 18.6928 117.694 19.6C117.953 20.4928 118.205 21.3928 118.45 22.3C118.709 23.1928 118.968 24.0928 119.228 25H109.594L109.227 22.8832C109.169 22.8832 109.119 22.8832 109.076 22.8832C109.032 22.8832 108.982 22.8832 108.924 22.8832H106.548C106.505 22.8832 106.462 22.8832 106.419 22.8832C106.376 22.8832 106.332 22.8832 106.289 22.8832L105.922 25H96.6988C96.958 24.0928 97.21 23.1928 97.4548 22.3C97.714 21.3928 97.966 20.4928 98.2108 19.6C98.47 18.6928 98.722 17.7928 98.9668 16.9C99.226 15.9928 99.478 15.0928 99.7228 14.2C99.982 13.2928 100.234 12.3928 100.479 11.5C100.738 10.5928 100.99 9.6928 101.235 8.8H114.648ZM106.548 21.3496C106.548 21.364 106.548 21.3712 106.548 21.3712C106.548 21.3712 106.556 21.3712 106.57 21.3712H108.946C108.96 21.3712 108.968 21.3712 108.968 21.3712C108.968 21.3568 108.968 21.3496 108.968 21.3496C108.968 21.3496 108.939 21.1768 108.881 20.8312C108.824 20.4712 108.744 20.0248 108.644 19.492C108.557 18.9448 108.464 18.3688 108.363 17.764C108.262 17.1448 108.168 16.5616 108.082 16.0144C107.996 15.4672 107.916 15.0208 107.844 14.6752C107.787 14.3296 107.758 14.1568 107.758 14.1568C107.758 14.1568 107.751 14.1568 107.736 14.1568C107.736 14.1568 107.708 14.3296 107.65 14.6752C107.592 15.0208 107.513 15.4672 107.412 16.0144C107.326 16.5616 107.232 17.1448 107.132 17.764C107.031 18.3688 106.937 18.9448 106.851 19.492C106.764 20.0248 106.692 20.4712 106.635 20.8312C106.577 21.1768 106.548 21.3496 106.548 21.3496ZM145.944 8.8C145.944 9.88 145.944 10.96 145.944 12.04C145.944 13.12 145.944 14.2 145.944 15.28C145.944 16.36 145.944 17.44 145.944 18.52C145.944 19.6 145.944 20.68 145.944 21.76C145.944 22.84 145.944 23.92 145.944 25H137.628C137.628 23.5024 137.628 22.0048 137.628 20.5072C137.628 19.0096 137.628 17.512 137.628 16.0144C137.628 16 137.621 15.9928 137.606 15.9928C137.606 15.9928 137.599 15.9928 137.585 15.9928C137.585 15.9928 137.585 16 137.585 16.0144L135.468 25H129.96C129.6 23.5024 129.247 22.012 128.902 20.5288C128.556 19.0456 128.203 17.5624 127.843 16.0792C127.843 16.0648 127.836 16.0576 127.822 16.0576C127.822 16.0576 127.814 16.0576 127.8 16.0576C127.8 16.0576 127.8 16.0648 127.8 16.0792C127.8 17.5624 127.8 19.0456 127.8 20.5288C127.8 22.012 127.8 23.5024 127.8 25H119.916C119.916 23.92 119.916 22.84 119.916 21.76C119.916 20.6656 119.916 19.5784 119.916 18.4984C119.916 17.404 119.916 16.3168 119.916 15.2368C119.916 14.1424 119.916 13.0552 119.916 11.9752C119.916 11.4424 119.916 10.9168 119.916 10.3984C119.916 9.8656 119.916 9.3328 119.916 8.8H131.429C131.645 9.6928 131.854 10.5856 132.055 11.4784C132.257 12.3568 132.458 13.2424 132.66 14.1352C132.876 15.028 133.085 15.9208 133.286 16.8136C133.286 16.828 133.286 16.8424 133.286 16.8568C133.301 16.8568 133.308 16.8568 133.308 16.8568C133.322 16.8424 133.33 16.828 133.33 16.8136L135.058 8.8H145.944ZM147.027 8.8H155.991C155.991 10.3696 155.991 11.8384 155.991 13.2064C155.991 14.5744 155.991 15.9424 155.991 17.3104C155.991 17.5264 156.034 17.7136 156.12 17.872C156.221 18.0304 156.343 18.1672 156.487 18.2824C156.646 18.3832 156.819 18.4624 157.006 18.52C157.207 18.5776 157.409 18.6064 157.611 18.6064C158.028 18.6064 158.403 18.4984 158.734 18.2824C159.065 18.0664 159.231 17.7496 159.231 17.332C159.231 16.6408 159.231 15.9568 159.231 15.28C159.231 14.6032 159.231 13.9192 159.231 13.228C159.231 12.5368 159.231 11.824 159.231 11.0896C159.231 10.3552 159.231 9.592 159.231 8.8H168.195C168.195 9.8944 168.195 11.0176 168.195 12.1696C168.195 13.3216 168.195 14.4808 168.195 15.6472C168.195 16.7992 168.195 17.9224 168.195 19.0168C168.195 20.1256 167.892 21.0976 167.287 21.9328C166.697 22.7536 165.898 23.4448 164.89 24.0064C163.882 24.5536 162.744 24.964 161.477 25.2376C160.224 25.5112 158.935 25.648 157.611 25.648C156.559 25.648 155.515 25.5616 154.479 25.3888C153.456 25.216 152.491 24.9496 151.584 24.5896C150.691 24.2296 149.899 23.7904 149.208 23.272C148.531 22.7392 147.999 22.12 147.61 21.4144C147.221 20.6944 147.027 19.8952 147.027 19.0168C147.027 18.4696 147.027 17.908 147.027 17.332C147.027 16.7416 147.027 16.1584 147.027 15.5824C147.027 14.8192 147.027 14.056 147.027 13.2928C147.027 12.5296 147.027 11.7736 147.027 11.0248C147.027 10.2616 147.027 9.52 147.027 8.8ZM169.265 8.8H184.881C186.149 8.8 187.2 9.0304 188.035 9.4912C188.87 9.9376 189.497 10.5208 189.914 11.2408C190.332 11.9464 190.541 12.6952 190.541 13.4872C190.541 14.308 190.31 15.1072 189.849 15.8848C189.403 16.648 188.719 17.2744 187.797 17.764C186.89 18.2536 185.753 18.4984 184.385 18.4984C184.327 18.4984 184.183 18.4984 183.953 18.4984C183.722 18.4984 183.485 18.4984 183.24 18.4984C183.009 18.4984 182.858 18.4984 182.786 18.4984C182.786 18.4984 182.786 18.5056 182.786 18.52C182.786 18.5344 182.786 18.5416 182.786 18.5416C182.786 18.5416 182.786 18.5488 182.786 18.5632C182.786 18.5632 182.786 18.5704 182.786 18.5848H187.689L191.016 25H180.756C180.482 24.2656 180.201 23.5312 179.913 22.7968C179.64 22.0624 179.359 21.328 179.071 20.5936C178.797 19.8592 178.517 19.1248 178.229 18.3904H180.734C181.022 18.3904 181.274 18.3472 181.49 18.2608C181.721 18.1744 181.908 18.0592 182.052 17.9152C182.196 17.7712 182.304 17.6128 182.376 17.44C182.448 17.2528 182.484 17.0656 182.484 16.8784C182.484 16.6192 182.419 16.3744 182.289 16.144C182.16 15.9136 181.965 15.7264 181.706 15.5824C181.447 15.4384 181.123 15.3664 180.734 15.3664H178.272C178.272 15.3664 178.265 15.3736 178.25 15.388C178.25 15.388 178.243 15.388 178.229 15.388C178.229 15.388 178.229 15.3952 178.229 15.4096C178.229 16.3456 178.229 17.0368 178.229 17.4832C178.229 17.9152 178.229 18.1888 178.229 18.304C178.229 18.4048 178.229 18.4408 178.229 18.412C178.229 18.412 178.229 18.4912 178.229 18.6496C178.229 18.7936 178.229 18.9952 178.229 19.2544C178.229 19.5136 178.229 19.8088 178.229 20.14C178.229 20.6152 178.229 21.1408 178.229 21.7168C178.229 22.2928 178.229 22.8688 178.229 23.4448C178.229 24.0064 178.229 24.5248 178.229 25H169.265C169.265 24.0784 169.265 23.1568 169.265 22.2352C169.265 21.2992 169.265 20.3704 169.265 19.4488C169.265 18.5272 169.265 17.6056 169.265 16.684C169.265 15.748 169.265 14.8192 169.265 13.8976C169.265 13.048 169.265 12.1984 169.265 11.3488C169.265 10.4992 169.265 9.6496 169.265 8.8ZM209.253 8.8C209.512 9.6928 209.764 10.5928 210.009 11.5C210.268 12.3928 210.52 13.2928 210.765 14.2C211.024 15.0928 211.283 15.9928 211.543 16.9C211.802 17.7928 212.054 18.6928 212.299 19.6C212.558 20.4928 212.81 21.3928 213.055 22.3C213.314 23.1928 213.573 24.0928 213.832 25H204.199L203.831 22.8832C203.774 22.8832 203.723 22.8832 203.68 22.8832C203.637 22.8832 203.587 22.8832 203.529 22.8832H201.153C201.11 22.8832 201.067 22.8832 201.023 22.8832C200.98 22.8832 200.937 22.8832 200.894 22.8832L200.527 25H191.303C191.563 24.0928 191.815 23.1928 192.059 22.3C192.319 21.3928 192.571 20.4928 192.815 19.6C193.075 18.6928 193.327 17.7928 193.571 16.9C193.831 15.9928 194.083 15.0928 194.327 14.2C194.587 13.2928 194.839 12.3928 195.083 11.5C195.343 10.5928 195.595 9.6928 195.839 8.8H209.253ZM201.153 21.3496C201.153 21.364 201.153 21.3712 201.153 21.3712C201.153 21.3712 201.16 21.3712 201.175 21.3712H203.551C203.565 21.3712 203.572 21.3712 203.572 21.3712C203.572 21.3568 203.572 21.3496 203.572 21.3496C203.572 21.3496 203.543 21.1768 203.486 20.8312C203.428 20.4712 203.349 20.0248 203.248 19.492C203.162 18.9448 203.068 18.3688 202.967 17.764C202.867 17.1448 202.773 16.5616 202.687 16.0144C202.6 15.4672 202.521 15.0208 202.449 14.6752C202.391 14.3296 202.363 14.1568 202.363 14.1568C202.363 14.1568 202.355 14.1568 202.341 14.1568C202.341 14.1568 202.312 14.3296 202.255 14.6752C202.197 15.0208 202.118 15.4672 202.017 16.0144C201.931 16.5616 201.837 17.1448 201.736 17.764C201.635 18.3688 201.542 18.9448 201.455 19.492C201.369 20.0248 201.297 20.4712 201.239 20.8312C201.182 21.1768 201.153 21.3496 201.153 21.3496ZM214.521 25C214.521 23.9632 214.521 22.9264 214.521 21.8896C214.521 20.8528 214.521 19.816 214.521 18.7792C214.521 17.7424 214.521 16.7056 214.521 15.6688C214.521 14.632 214.521 13.5952 214.521 12.5584C214.521 11.9248 214.521 11.2984 214.521 10.6792C214.521 10.0456 214.521 9.4192 214.521 8.8H223.485C223.485 10.1968 223.485 11.5936 223.485 12.9904C223.485 14.3728 223.485 15.7624 223.485 17.1592C223.485 18.0232 223.485 18.8944 223.485 19.7728C223.485 20.6368 223.485 21.508 223.485 22.3864C223.485 23.2504 223.485 24.1216 223.485 25H214.521Z" fill="#060606"/>
<path d="M92.4036 33.0432H83.0076C82.9932 33.0432 82.986 33.0432 82.986 33.0432V34.2312C82.986 34.2456 82.986 34.26 82.986 34.2744C83.0004 34.2744 83.0076 34.2744 83.0076 34.2744H92.0796V37.32H83.0076C83.0076 37.32 83.0004 37.32 82.986 37.32C82.986 37.32 82.986 37.3272 82.986 37.3416C82.986 37.3416 82.986 37.3488 82.986 37.3632V38.5728C83.0004 38.5728 83.0076 38.5728 83.0076 38.5728H92.5332V43.8H74.238C74.238 42.9504 74.238 42.1008 74.238 41.2512C74.238 40.3872 74.238 39.5304 74.238 38.6808C74.238 37.8312 74.238 36.9816 74.238 36.132C74.238 35.268 74.238 34.4112 74.238 33.5616C74.238 32.6976 74.238 31.8408 74.238 30.9912C74.238 30.4296 74.238 29.868 74.238 29.3064C74.238 28.7304 74.238 28.1616 74.238 27.6H92.4036V33.0432ZM102.529 37.4064C102.529 37.4208 102.529 37.4352 102.529 37.4496C102.543 37.4496 102.558 37.4496 102.572 37.4496H110.996V43.8H93.5649C93.5649 42.9072 93.5649 42.0144 93.5649 41.1216C93.5649 40.2288 93.5649 39.336 93.5649 38.4432C93.5649 37.536 93.5649 36.636 93.5649 35.7432C93.5649 34.8504 93.5649 33.9576 93.5649 33.0648C93.5649 32.1576 93.5649 31.2504 93.5649 30.3432C93.5649 29.4216 93.5649 28.5072 93.5649 27.6H102.529C102.529 28.4208 102.529 29.2416 102.529 30.0624C102.529 30.8688 102.529 31.6824 102.529 32.5032C102.529 33.324 102.529 34.1448 102.529 34.9656C102.529 35.772 102.529 36.5856 102.529 37.4064ZM130.087 33.0432H120.691C120.677 33.0432 120.67 33.0432 120.67 33.0432V34.2312C120.67 34.2456 120.67 34.26 120.67 34.2744C120.684 34.2744 120.691 34.2744 120.691 34.2744H129.763V37.32H120.691C120.691 37.32 120.684 37.32 120.67 37.32C120.67 37.32 120.67 37.3272 120.67 37.3416C120.67 37.3416 120.67 37.3488 120.67 37.3632V38.5728C120.684 38.5728 120.691 38.5728 120.691 38.5728H130.217V43.8H111.922C111.922 42.9504 111.922 42.1008 111.922 41.2512C111.922 40.3872 111.922 39.5304 111.922 38.6808C111.922 37.8312 111.922 36.9816 111.922 36.132C111.922 35.268 111.922 34.4112 111.922 33.5616C111.922 32.6976 111.922 31.8408 111.922 30.9912C111.922 30.4296 111.922 29.868 111.922 29.3064C111.922 28.7304 111.922 28.1616 111.922 27.6H130.087V33.0432ZM144.921 27.6C146.26 27.6 147.427 27.7872 148.42 28.1616C149.428 28.5216 150.256 29.0184 150.904 29.652C151.567 30.2712 152.064 30.9768 152.395 31.7688C152.726 32.5608 152.892 33.3816 152.892 34.2312C152.892 35.1384 152.719 36.0024 152.373 36.8232C152.042 37.6296 151.538 38.3496 150.861 38.9832C150.199 39.6168 149.371 40.1208 148.377 40.4952C147.384 40.8552 146.232 41.0352 144.921 41.0352H140.277C140.277 41.0352 140.27 41.0424 140.256 41.0568C140.256 41.0568 140.248 41.0568 140.234 41.0568C140.234 41.0568 140.234 41.064 140.234 41.0784V43.8H131.248C131.248 42.8352 131.248 41.8704 131.248 40.9056C131.248 39.9408 131.248 38.976 131.248 38.0112C131.248 37.0464 131.248 36.0816 131.248 35.1168C131.248 34.152 131.248 33.1872 131.248 32.2224C131.248 31.4448 131.248 30.6744 131.248 29.9112C131.248 29.1336 131.248 28.3632 131.248 27.6H144.921ZM142.264 36.348C142.696 36.348 143.056 36.276 143.344 36.132C143.647 35.9736 143.87 35.7792 144.014 35.5488C144.158 35.304 144.23 35.0592 144.23 34.8144C144.23 34.5552 144.158 34.3176 144.014 34.1016C143.87 33.8712 143.654 33.684 143.366 33.54C143.078 33.396 142.711 33.324 142.264 33.324H140.277C140.263 33.324 140.248 33.3312 140.234 33.3456C140.234 33.3456 140.234 33.3528 140.234 33.3672V36.3264C140.248 36.3264 140.256 36.3336 140.256 36.348C140.27 36.348 140.277 36.348 140.277 36.348H142.264ZM165.706 27.6H174.67C174.67 28.5072 174.67 29.4144 174.67 30.3216C174.67 31.2288 174.67 32.136 174.67 33.0432C174.67 33.9504 174.67 34.8648 174.67 35.7864C174.67 37.1112 174.67 38.4432 174.67 39.7824C174.67 41.1216 174.67 42.4608 174.67 43.8H165.706C165.706 42.9216 165.706 42.0432 165.706 41.1648C165.706 40.2864 165.706 39.408 165.706 38.5296C165.706 38.5152 165.699 38.508 165.685 38.508C165.685 38.4936 165.678 38.4864 165.663 38.4864H162.704C162.69 38.4864 162.682 38.4936 162.682 38.508C162.682 38.508 162.682 38.5152 162.682 38.5296C162.682 39.408 162.682 40.2864 162.682 41.1648C162.682 42.0432 162.682 42.9216 162.682 43.8H153.718C153.718 42.936 153.718 42.072 153.718 41.208C153.718 40.344 153.718 39.48 153.718 38.616C153.718 37.752 153.718 36.888 153.718 36.024C153.718 35.16 153.718 34.296 153.718 33.432C153.718 32.568 153.718 31.704 153.718 30.84C153.718 30.2928 153.718 29.7528 153.718 29.22C153.718 28.6728 153.718 28.1328 153.718 27.6H162.682C162.682 28.2912 162.682 28.9896 162.682 29.6952C162.682 30.4008 162.682 31.1064 162.682 31.812C162.682 32.5032 162.682 33.2016 162.682 33.9072C162.682 33.9216 162.682 33.936 162.682 33.9504C162.682 33.9504 162.69 33.9504 162.704 33.9504H165.663C165.678 33.9504 165.685 33.9504 165.685 33.9504C165.699 33.936 165.706 33.9216 165.706 33.9072C165.706 32.856 165.706 31.8048 165.706 30.7536C165.706 29.7024 165.706 28.6512 165.706 27.6ZM193.306 27.6C193.565 28.4928 193.817 29.3928 194.062 30.3C194.321 31.1928 194.573 32.0928 194.818 33C195.077 33.8928 195.337 34.7928 195.596 35.7C195.855 36.5928 196.107 37.4928 196.352 38.4C196.611 39.2928 196.863 40.1928 197.108 41.1C197.367 41.9928 197.626 42.8928 197.885 43.8H188.252L187.885 41.6832C187.827 41.6832 187.777 41.6832 187.733 41.6832C187.69 41.6832 187.64 41.6832 187.582 41.6832H185.206C185.163 41.6832 185.12 41.6832 185.077 41.6832C185.033 41.6832 184.99 41.6832 184.947 41.6832L184.58 43.8H175.357C175.616 42.8928 175.868 41.9928 176.113 41.1C176.372 40.1928 176.624 39.2928 176.869 38.4C177.128 37.4928 177.38 36.5928 177.625 35.7C177.884 34.7928 178.136 33.8928 178.381 33C178.64 32.0928 178.892 31.1928 179.137 30.3C179.396 29.3928 179.648 28.4928 179.893 27.6H193.306ZM185.206 40.1496C185.206 40.164 185.206 40.1712 185.206 40.1712C185.206 40.1712 185.213 40.1712 185.228 40.1712H187.604C187.618 40.1712 187.625 40.1712 187.625 40.1712C187.625 40.1568 187.625 40.1496 187.625 40.1496C187.625 40.1496 187.597 39.9768 187.539 39.6312C187.481 39.2712 187.402 38.8248 187.301 38.292C187.215 37.7448 187.121 37.1688 187.021 36.564C186.92 35.9448 186.826 35.3616 186.74 34.8144C186.653 34.2672 186.574 33.8208 186.502 33.4752C186.445 33.1296 186.416 32.9568 186.416 32.9568C186.416 32.9568 186.409 32.9568 186.394 32.9568C186.394 32.9568 186.365 33.1296 186.308 33.4752C186.25 33.8208 186.171 34.2672 186.07 34.8144C185.984 35.3616 185.89 35.9448 185.789 36.564C185.689 37.1688 185.595 37.7448 185.509 38.292C185.422 38.8248 185.35 39.2712 185.293 39.6312C185.235 39.9768 185.206 40.1496 185.206 40.1496ZM211.339 27.6H219.655C219.655 28.1328 219.655 28.6728 219.655 29.22C219.655 29.7528 219.655 30.2928 219.655 30.84C219.655 31.3728 219.655 31.9128 219.655 32.46C219.655 32.9928 219.655 33.5328 219.655 34.08C219.655 34.6128 219.655 35.1528 219.655 35.7C219.655 37.0536 219.655 38.4072 219.655 39.7608C219.655 41.1 219.655 42.4464 219.655 43.8H209.655L206.933 36.024C206.933 36.0096 206.926 36.0024 206.911 36.0024C206.911 36.0024 206.904 36.0024 206.89 36.0024C206.89 36.0024 206.89 36.0096 206.89 36.024C206.89 37.2912 206.89 38.5872 206.89 39.912C206.89 41.2368 206.89 42.5328 206.89 43.8H198.574C198.574 42.72 198.574 41.64 198.574 40.56C198.574 39.48 198.574 38.4 198.574 37.32C198.574 36.24 198.574 35.16 198.574 34.08C198.574 33 198.574 31.92 198.574 30.84C198.574 29.76 198.574 28.68 198.574 27.6H208.251L211.296 36.564C211.311 36.564 211.318 36.564 211.318 36.564C211.332 36.564 211.339 36.564 211.339 36.564C211.339 36.5496 211.339 36.5424 211.339 36.5424V27.6ZM240.038 27.6V34.1664H234.832C234.832 34.1664 234.825 34.1736 234.811 34.188C234.811 34.188 234.803 34.188 234.789 34.188C234.789 34.188 234.789 34.1952 234.789 34.2096C234.789 34.8432 234.789 35.484 234.789 36.132C234.789 36.7656 234.789 37.4064 234.789 38.0544C234.789 38.688 234.789 39.3288 234.789 39.9768C234.789 40.6104 234.789 41.2512 234.789 41.8992C234.789 42.5328 234.789 43.1664 234.789 43.8H225.825C225.825 42.7344 225.825 41.6688 225.825 40.6032C225.825 39.5376 225.825 38.472 225.825 37.4064C225.825 36.3408 225.825 35.2752 225.825 34.2096C225.825 34.1952 225.818 34.188 225.803 34.188C225.803 34.1736 225.796 34.1664 225.782 34.1664H220.576V27.6H240.038Z" fill="#060606"/>
<path d="M77.0244 54.7296C76.47 54.7296 75.9876 54.6288 75.5772 54.4272C75.1668 54.2256 74.85 53.9448 74.6268 53.5848C74.4036 53.2248 74.292 52.8072 74.292 52.332H75.2424C75.2424 52.6272 75.3108 52.9008 75.4476 53.1528C75.5844 53.3976 75.7824 53.5956 76.0416 53.7468C76.308 53.8908 76.6356 53.9628 77.0244 53.9628C77.3628 53.9628 77.6508 53.9088 77.8884 53.8008C78.1332 53.6856 78.3168 53.5308 78.4392 53.3364C78.5688 53.142 78.6336 52.9224 78.6336 52.6776C78.6336 52.3824 78.5688 52.1448 78.4392 51.9648C78.3168 51.7776 78.1476 51.6264 77.9316 51.5112C77.7156 51.396 77.4636 51.2952 77.1756 51.2088C76.8948 51.1152 76.5996 51.018 76.29 50.9172C75.6924 50.7156 75.2532 50.4636 74.9724 50.1612C74.6916 49.8588 74.5512 49.4664 74.5512 48.984C74.5512 48.5736 74.6448 48.2136 74.832 47.904C75.0264 47.5944 75.3 47.3532 75.6528 47.1804C76.0128 47.0004 76.4376 46.9104 76.9272 46.9104C77.4096 46.9104 77.8272 47.0004 78.18 47.1804C78.54 47.3604 78.8208 47.6088 79.0224 47.9256C79.224 48.2352 79.3248 48.5952 79.3248 49.0056H78.3744C78.3744 48.7968 78.3204 48.5916 78.2124 48.39C78.1044 48.1884 77.9388 48.0228 77.7156 47.8932C77.4996 47.7564 77.226 47.688 76.8948 47.688C76.6212 47.6808 76.3764 47.7276 76.1604 47.8284C75.9516 47.922 75.786 48.0588 75.6636 48.2388C75.5484 48.4188 75.4908 48.6384 75.4908 48.8976C75.4908 49.1424 75.5412 49.3404 75.642 49.4916C75.75 49.6428 75.9012 49.7724 76.0956 49.8804C76.2972 49.9812 76.5312 50.0748 76.7976 50.1612C77.064 50.2476 77.3592 50.3448 77.6832 50.4528C78.0504 50.5752 78.3744 50.7264 78.6552 50.9064C78.9432 51.0792 79.1664 51.3024 79.3248 51.576C79.4904 51.8496 79.5732 52.1988 79.5732 52.6236C79.5732 52.9836 79.476 53.3256 79.2816 53.6496C79.0944 53.9664 78.8136 54.2256 78.4392 54.4272C78.0648 54.6288 77.5932 54.7296 77.0244 54.7296ZM83.0732 54.6C82.7492 54.6 82.4684 54.5496 82.2308 54.4488C81.9932 54.348 81.8096 54.1788 81.68 53.9412C81.5576 53.6964 81.4964 53.3688 81.4964 52.9584V49.9236H80.546V49.1568H81.4964L81.6152 47.8392H82.4036V49.1568H83.9804V49.9236H82.4036V52.9584C82.4036 53.2968 82.472 53.5272 82.6088 53.6496C82.7456 53.7648 82.9868 53.8224 83.3324 53.8224H83.9156V54.6H83.0732ZM87.2485 54.7296C86.8309 54.7296 86.4637 54.6468 86.1469 54.4812C85.8373 54.3156 85.5961 54.06 85.4233 53.7144C85.2577 53.3688 85.1749 52.9368 85.1749 52.4184V49.1568H86.0821V52.3212C86.0821 52.8612 86.2009 53.268 86.4385 53.5416C86.6761 53.8152 87.0109 53.952 87.4429 53.952C87.7453 53.952 88.0189 53.88 88.2637 53.736C88.5085 53.5848 88.6993 53.3724 88.8361 53.0988C88.9801 52.818 89.0521 52.476 89.0521 52.0728V49.1568H89.9593V54.6H89.1385L89.0845 53.6496C88.9189 53.988 88.6741 54.2544 88.3501 54.4488C88.0261 54.636 87.6589 54.7296 87.2485 54.7296ZM93.9688 54.7296C93.4432 54.7296 92.9824 54.6072 92.5864 54.3624C92.1904 54.1104 91.8844 53.7684 91.6684 53.3364C91.4524 52.9044 91.3444 52.4148 91.3444 51.8676C91.3444 51.3204 91.4524 50.8344 91.6684 50.4096C91.8844 49.9776 92.1904 49.6392 92.5864 49.3944C92.9896 49.1496 93.454 49.0272 93.9796 49.0272C94.426 49.0272 94.8148 49.1172 95.146 49.2972C95.4844 49.4772 95.7436 49.7292 95.9236 50.0532V46.824H96.8308V54.6H96.01L95.9344 53.7036C95.8192 53.8836 95.6716 54.0528 95.4916 54.2112C95.3116 54.3624 95.0956 54.4884 94.8436 54.5892C94.5916 54.6828 94.3 54.7296 93.9688 54.7296ZM94.0768 53.9412C94.4368 53.9412 94.7536 53.8548 95.0272 53.682C95.3008 53.5092 95.5132 53.2716 95.6644 52.9692C95.8156 52.6596 95.8912 52.296 95.8912 51.8784C95.8912 51.468 95.8156 51.108 95.6644 50.7984C95.5132 50.4888 95.3008 50.2476 95.0272 50.0748C94.7536 49.902 94.4368 49.8156 94.0768 49.8156C93.724 49.8156 93.4108 49.902 93.1372 50.0748C92.8636 50.2476 92.6512 50.4888 92.5 50.7984C92.3488 51.108 92.2732 51.468 92.2732 51.8784C92.2732 52.296 92.3488 52.6596 92.5 52.9692C92.6512 53.2716 92.8636 53.5092 93.1372 53.682C93.4108 53.8548 93.724 53.9412 94.0768 53.9412ZM98.5367 54.6V49.1568H99.4439V54.6H98.5367ZM98.9903 48.0012C98.8103 48.0012 98.6591 47.9436 98.5367 47.8284C98.4215 47.706 98.3639 47.5548 98.3639 47.3748C98.3639 47.1948 98.4215 47.0508 98.5367 46.9428C98.6591 46.8276 98.8103 46.77 98.9903 46.77C99.1631 46.77 99.3107 46.8276 99.4331 46.9428C99.5555 47.0508 99.6167 47.1948 99.6167 47.3748C99.6167 47.5548 99.5555 47.706 99.4331 47.8284C99.3107 47.9436 99.1631 48.0012 98.9903 48.0012ZM103.583 54.7296C103.079 54.7296 102.625 54.6144 102.222 54.384C101.819 54.1464 101.502 53.8152 101.272 53.3904C101.041 52.9584 100.926 52.458 100.926 51.8892C100.926 51.306 101.041 50.802 101.272 50.3772C101.509 49.9452 101.83 49.614 102.233 49.3836C102.643 49.146 103.1 49.0272 103.604 49.0272C104.123 49.0272 104.58 49.146 104.976 49.3836C105.379 49.614 105.696 49.9452 105.926 50.3772C106.164 50.802 106.283 51.3024 106.283 51.8784C106.283 52.4544 106.164 52.9584 105.926 53.3904C105.689 53.8152 105.368 54.1464 104.965 54.384C104.562 54.6144 104.101 54.7296 103.583 54.7296ZM103.594 53.952C103.903 53.952 104.191 53.8764 104.458 53.7252C104.724 53.5668 104.94 53.3328 105.106 53.0232C105.271 52.7136 105.354 52.332 105.354 51.8784C105.354 51.4176 105.271 51.036 105.106 50.7336C104.947 50.424 104.735 50.1936 104.468 50.0424C104.209 49.884 103.921 49.8048 103.604 49.8048C103.302 49.8048 103.014 49.884 102.74 50.0424C102.474 50.1936 102.258 50.424 102.092 50.7336C101.934 51.036 101.855 51.4176 101.855 51.8784C101.855 52.332 101.934 52.7136 102.092 53.0232C102.258 53.3328 102.47 53.5668 102.73 53.7252C102.996 53.8764 103.284 53.952 103.594 53.952ZM112.465 54.6V47.7852H110.207V47.04H115.629V47.7852H113.372V54.6H112.465ZM116.801 54.6V46.824H117.709V50.0748C117.889 49.7508 118.141 49.4952 118.465 49.308C118.796 49.1208 119.156 49.0272 119.545 49.0272C119.962 49.0272 120.326 49.1136 120.635 49.2864C120.945 49.452 121.183 49.7076 121.348 50.0532C121.514 50.3988 121.597 50.8344 121.597 51.36V54.6H120.7V51.4572C120.7 50.91 120.585 50.4996 120.355 50.226C120.124 49.9452 119.789 49.8048 119.35 49.8048C119.041 49.8048 118.76 49.8804 118.508 50.0316C118.263 50.1828 118.069 50.3988 117.925 50.6796C117.781 50.9604 117.709 51.306 117.709 51.7164V54.6H116.801ZM125.508 54.7296C124.997 54.7296 124.544 54.6108 124.148 54.3732C123.759 54.1356 123.453 53.8044 123.23 53.3796C123.006 52.9476 122.895 52.4472 122.895 51.8784C122.895 51.3024 123.003 50.802 123.219 50.3772C123.442 49.9524 123.752 49.6212 124.148 49.3836C124.551 49.146 125.012 49.0272 125.53 49.0272C126.063 49.0272 126.513 49.146 126.88 49.3836C127.254 49.6212 127.539 49.9344 127.733 50.3232C127.935 50.7048 128.036 51.126 128.036 51.5868C128.036 51.6588 128.036 51.7344 128.036 51.8136C128.036 51.8928 128.032 51.9828 128.025 52.0836H123.575V51.3816H127.15C127.128 50.8848 126.963 50.496 126.653 50.2152C126.351 49.9344 125.969 49.794 125.508 49.794C125.199 49.794 124.911 49.866 124.644 50.01C124.385 50.1468 124.176 50.352 124.018 50.6256C123.86 50.892 123.78 51.2268 123.78 51.63V51.9324C123.78 52.3788 123.86 52.7532 124.018 53.0556C124.184 53.358 124.396 53.5848 124.655 53.736C124.922 53.8872 125.206 53.9628 125.508 53.9628C125.89 53.9628 126.203 53.88 126.448 53.7144C126.7 53.5416 126.88 53.3112 126.988 53.0232H127.884C127.798 53.3472 127.647 53.6388 127.431 53.898C127.215 54.1572 126.945 54.3624 126.621 54.5136C126.304 54.6576 125.933 54.7296 125.508 54.7296ZM131.139 54.7296C130.7 54.7296 130.333 54.654 130.037 54.5028C129.742 54.3444 129.523 54.1392 129.379 53.8872C129.235 53.628 129.163 53.3472 129.163 53.0448C129.163 52.6776 129.256 52.368 129.443 52.116C129.638 51.8568 129.908 51.6624 130.253 51.5328C130.606 51.396 131.02 51.3276 131.495 51.3276H132.932C132.932 50.9892 132.878 50.7084 132.77 50.4852C132.669 50.2548 132.518 50.082 132.316 49.9668C132.122 49.8516 131.877 49.794 131.582 49.794C131.236 49.794 130.937 49.8804 130.685 50.0532C130.433 50.226 130.279 50.4816 130.221 50.82H129.292C129.335 50.4312 129.465 50.1072 129.681 49.848C129.904 49.5816 130.185 49.38 130.523 49.2432C130.862 49.0992 131.215 49.0272 131.582 49.0272C132.086 49.0272 132.503 49.1208 132.835 49.308C133.173 49.488 133.425 49.7436 133.591 50.0748C133.756 50.3988 133.839 50.784 133.839 51.2304V54.6H133.029L132.975 53.6388C132.903 53.79 132.809 53.934 132.694 54.0708C132.586 54.2004 132.457 54.3156 132.305 54.4164C132.154 54.51 131.981 54.5856 131.787 54.6432C131.6 54.7008 131.384 54.7296 131.139 54.7296ZM131.279 53.9628C131.531 53.9628 131.758 53.9124 131.96 53.8116C132.169 53.7036 132.345 53.5596 132.489 53.3796C132.633 53.1924 132.741 52.9872 132.813 52.764C132.892 52.5408 132.932 52.3068 132.932 52.062V52.0296H131.571C131.218 52.0296 130.934 52.0728 130.718 52.1592C130.502 52.2384 130.347 52.3536 130.253 52.5048C130.16 52.6488 130.113 52.8144 130.113 53.0016C130.113 53.196 130.156 53.3652 130.243 53.5092C130.336 53.6532 130.469 53.7648 130.642 53.844C130.822 53.9232 131.035 53.9628 131.279 53.9628ZM137.341 54.6C137.017 54.6 136.736 54.5496 136.499 54.4488C136.261 54.348 136.078 54.1788 135.948 53.9412C135.826 53.6964 135.764 53.3688 135.764 52.9584V49.9236H134.814V49.1568H135.764L135.883 47.8392H136.672V49.1568H138.248V49.9236H136.672V52.9584C136.672 53.2968 136.74 53.5272 136.877 53.6496C137.014 53.7648 137.255 53.8224 137.6 53.8224H138.184V54.6H137.341ZM139.54 54.6V49.1568H140.361L140.426 50.1936C140.548 49.9488 140.703 49.74 140.89 49.5672C141.084 49.3944 141.315 49.2612 141.581 49.1676C141.855 49.074 142.164 49.0272 142.51 49.0272V49.9776H142.175C141.945 49.9776 141.725 50.01 141.516 50.0748C141.308 50.1324 141.12 50.2296 140.955 50.3664C140.796 50.5032 140.67 50.6904 140.577 50.928C140.49 51.1584 140.447 51.4464 140.447 51.792V54.6H139.54ZM145.832 54.7296C145.321 54.7296 144.867 54.6108 144.471 54.3732C144.082 54.1356 143.776 53.8044 143.553 53.3796C143.33 52.9476 143.218 52.4472 143.218 51.8784C143.218 51.3024 143.326 50.802 143.542 50.3772C143.765 49.9524 144.075 49.6212 144.471 49.3836C144.874 49.146 145.335 49.0272 145.853 49.0272C146.386 49.0272 146.836 49.146 147.203 49.3836C147.578 49.6212 147.862 49.9344 148.057 50.3232C148.258 50.7048 148.359 51.126 148.359 51.5868C148.359 51.6588 148.359 51.7344 148.359 51.8136C148.359 51.8928 148.355 51.9828 148.348 52.0836H143.899V51.3816H147.473C147.452 50.8848 147.286 50.496 146.977 50.2152C146.674 49.9344 146.293 49.794 145.832 49.794C145.522 49.794 145.234 49.866 144.968 50.01C144.709 50.1468 144.5 50.352 144.341 50.6256C144.183 50.892 144.104 51.2268 144.104 51.63V51.9324C144.104 52.3788 144.183 52.7532 144.341 53.0556C144.507 53.358 144.719 53.5848 144.979 53.736C145.245 53.8872 145.529 53.9628 145.832 53.9628C146.213 53.9628 146.527 53.88 146.771 53.7144C147.023 53.5416 147.203 53.3112 147.311 53.0232H148.208C148.121 53.3472 147.97 53.6388 147.754 53.898C147.538 54.1572 147.268 54.3624 146.944 54.5136C146.627 54.6576 146.257 54.7296 145.832 54.7296Z" fill="#060606"/>
</svg>
